<svg xmlns="http://www.w3.org/2000/svg" width="750" height="750" fill="none">
  <path fill="url(#aavegotchi_svg__a)" d="M375 750c207.107 0 375-167.893 375-375S582.107 0 375 0 0 167.893 0 375s167.893 375 375 375"/>
  <path fill="#000" d="M607.578 246.646c-18.64-19.025-43.105-30.95-69.315-33.785-26.209-2.834-52.579 3.593-74.709 18.209 23.973 27.783 36.689 63.841 35.566 100.85s-16 72.194-41.61 98.409l-69.771 71.239 23.413 23.905 9.581-9.783 23.955 24.46-9.58 9.783 19.166 19.568 153.308-156.53c21.599-22.058 33.733-51.972 33.732-83.164 0-31.191-12.135-61.104-33.736-83.161" opacity=".25"/>
  <path fill="#000" d="M438.121 244.235c-10.695-10.92-23.392-19.583-37.366-25.493a113.1 113.1 0 0 0-44.078-8.952 113.1 113.1 0 0 0-44.078 8.952c-13.974 5.91-26.671 14.573-37.367 25.493L121.924 400.767l19.166 19.563 9.58-9.782 23.957 24.461-9.581 9.781 23.956 24.46 9.581-9.783 28.746 29.352-9.58 9.782 23.957 24.46 9.581-9.783 23.956 24.456-9.581 9.783 19.166 19.568 153.308-156.532c21.596-22.059 33.726-51.973 33.724-83.162s-12.139-61.101-33.739-83.156" opacity=".25"/>
  <path fill="#D7D7D7" d="M594.331 233.124c-18.639-19.026-43.104-30.951-69.314-33.785-26.209-2.835-52.579 3.592-74.708 18.208 23.972 27.783 36.688 63.842 35.565 100.851s-16.001 72.194-41.611 98.409l-69.771 71.238 23.413 23.905 9.581-9.781 23.956 24.458-9.581 9.782 19.166 19.569 153.309-156.531c21.599-22.057 33.733-51.972 33.732-83.163s-12.136-61.104-33.737-83.16"/>
  <path fill="#fff" d="M594.331 233.124c-18.639-19.026-43.104-30.951-69.314-33.785-26.209-2.835-52.579 3.592-74.708 18.208 23.972 27.783 36.688 63.842 35.565 100.851s-16.001 72.194-41.611 98.409l-69.771 71.237 10.171 10.386 9.58-9.783 37.199 37.98-9.581 9.782 5.919 6.044 153.31-156.531c44.981-45.932 58.222-106.872 13.241-152.798"/>
  <path fill="#D7D7D7" d="M424.894 230.71c-10.695-10.921-23.392-19.583-37.367-25.493a113.1 113.1 0 0 0-44.077-8.952 113.1 113.1 0 0 0-44.078 8.952c-13.974 5.91-26.672 14.572-37.367 25.493L108.696 387.241l19.161 19.569 9.581-9.783 23.956 24.462-9.581 9.782 23.957 24.459 9.58-9.781 28.747 29.351-9.581 9.781 23.957 24.46 9.58-9.783 23.957 24.46-9.581 9.783 19.166 19.568 153.308-156.531c21.598-22.059 33.73-51.975 33.728-83.166s-12.137-61.105-33.737-83.162"/>
  <path fill="#fff" d="M424.894 230.71c-10.695-10.921-23.392-19.583-37.367-25.493a113.1 113.1 0 0 0-44.077-8.952 113.1 113.1 0 0 0-44.078 8.952c-13.974 5.91-26.671 14.572-37.367 25.493L108.696 387.241l5.919 6.043 9.581-9.782 37.198 37.981-9.581 9.783 10.709 10.934 9.581-9.782 41.989 42.871-9.58 9.782 10.709 10.935 9.58-9.783L262 524.205l-9.581 9.782 5.919 6.042 153.309-156.531c44.986-45.923 58.229-106.862 13.247-152.788"/>
  <defs>
    <linearGradient id="aavegotchi_svg__a" x1="267.426" x2="490.021" y1="36.662" y2="736.76" gradientUnits="userSpaceOnUse">
      <stop offset=".157" stop-color="#FF1DFF"/>
      <stop offset="1" stop-color="#672EEB"/>
    </linearGradient>
  </defs>
</svg>
