<svg viewBox="0 0 1226.88 1226.88" xmlns="http://www.w3.org/2000/svg"><g fill="#213147"><circle cx="613.44" cy="613.44" r="613.44"/><path d="m162.91 397.79v431.21c0 27.53 14.71 52.99 38.54 66.71l373.44 215.65a77.17 77.17 0 0 0 77 0l373.44-215.65c23.83-13.72 38.54-39.18 38.54-66.71v-431.21c0-27.53-14.71-52.99-38.54-66.71l-373.44-215.65a77.17 77.17 0 0 0 -77 0l-373.53 215.65c-23.83 13.72-38.45 39.18-38.45 66.71"/></g><path d="m694.86 697.03-53.26 146.05a18.77 18.77 0 0 0 0 12.55l91.62 251.3 105.97-61.2-127.19-348.7c-2.89-8.03-14.26-8.03-17.15 0zm106.79-245.62c-2.89-8.03-14.26-8.03-17.15 0l-53.26 146.05a18.77 18.77 0 0 0 0 12.55l150.11 411.44 105.97-61.2-185.68-508.84z" fill="#12aaff"/><path d="m613.35 131.59c2.62 0 5.24.72 7.58 1.99l404.13 233.34c4.69 2.71 7.58 7.76 7.58 13.09v466.59c0 5.42-2.89 10.38-7.58 13.09l-404.13 233.34c-2.26 1.35-4.96 1.99-7.58 1.99s-5.24-.72-7.58-1.99l-404.13-233.16c-4.69-2.71-7.58-7.76-7.58-13.09v-466.68c0-5.42 2.89-10.38 7.58-13.09l404.13-233.34c2.35-1.35 4.96-2.08 7.58-2.08m0-68.15c-14.35 0-28.8 3.7-41.7 11.19l-404.04 233.25c-25.82 14.89-41.7 42.43-41.7 72.21v466.59a83.36 83.36 0 0 0 41.7 72.21l404.13 233.34c12.91 7.4 27.26 11.19 41.7 11.19s28.8-3.7 41.7-11.19l404.13-233.34c25.82-14.89 41.7-42.43 41.7-72.21v-466.59a83.36 83.36 0 0 0 -41.7-72.21l-404.22-233.25c-12.91-7.49-27.35-11.19-41.7-11.19" fill="#9dcced"/><path d="m346.07 1021.99 37.19-101.82 74.83 62.19-69.96 63.91z" fill="#213147"/><path d="m579.32 346.7h-102.45c-7.67 0-14.53 4.78-17.15 12.01l-219.62 602.08 105.97 61.2 241.83-663.01c2.26-5.96-2.17-12.28-8.58-12.28m179.27 0h-102.45c-7.67 0-14.53 4.78-17.15 12.01l-250.76 687.48 105.97 61.2 272.97-748.41c2.17-5.96-2.26-12.28-8.58-12.28" fill="#fff"/></svg>