<svg viewBox="17.76 43.6 138.25 140" xmlns="http://www.w3.org/2000/svg" xmlns:xlink="http://www.w3.org/1999/xlink"><linearGradient id="a" x1="24.951" x2="114.205" xlink:href="none" y1="316.72" y2="228.584"><stop offset=".001" stop-color="#e6007a"/><stop offset=".207" stop-color="#703ac2"/><stop offset=".456" stop-color="#0070eb"/><stop offset=".768" stop-color="#0297fb"/><stop offset="1" stop-color="#0ae2ff"/></linearGradient><linearGradient id="b" x1="30.031" x2="44.77" xlink:href="none" y1="301.532" y2="301.33"><stop offset="0" stop-color="#fff" stop-opacity="0"/><stop offset="1" stop-color="#fff"/></linearGradient><linearGradient id="c" x1="121.036" x2="113.348" xlink:href="none" y1="289.568" y2="276.831"><stop offset="0" stop-color="#fff" stop-opacity="0"/><stop offset="1" stop-color="#fff"/></linearGradient><linearGradient id="d" x1="65.298" x2="57.966" xlink:href="none" y1="215.734" y2="228.686"><stop offset="0" stop-color="#fff" stop-opacity="0"/><stop offset="1" stop-color="#fff"/></linearGradient><linearGradient id="e" x1="68.502" x2="45.939" xlink:href="none" y1="209.111" y2="215.592"><stop offset="0" stop-color="#231f20"/><stop offset="1" stop-color="#fff"/></linearGradient><linearGradient id="f" x1="25.946" x2="45.027" xlink:href="none" y1="296.085" y2="315.747"><stop offset="0" stop-color="#231f20"/><stop offset="1" stop-color="#fff"/></linearGradient><linearGradient id="g" x1="127.028" x2="133.729" xlink:href="none" y1="293.086" y2="272.957"><stop offset="0" stop-color="#231f20"/><stop offset="1" stop-color="#fff"/></linearGradient><linearGradient id="h" x1="78.763" x2="108.991" xlink:href="none" y1="220.65" y2="227.485"><stop offset="0" stop-color="#231f20"/><stop offset="1" stop-color="#fff"/></linearGradient><linearGradient id="i" x1="110.105" x2="88.737" xlink:href="none" y1="298.917" y2="321.626"><stop offset="0" stop-color="#231f20"/><stop offset="1" stop-color="#fff"/></linearGradient><linearGradient id="j" x1="27.508" x2="18.187" xlink:href="none" y1="287.287" y2="257.375"><stop offset="0" stop-color="#231f20"/><stop offset="1" stop-color="#fff"/></linearGradient><linearGradient id="k" x1="85.363" x2="75.689" xlink:href="none" y1="231.926" y2="241.479"><stop offset="0" stop-color="#231f20"/><stop offset="1" stop-color="#fff"/></linearGradient><linearGradient id="l" x1="33.845" x2="46.917" xlink:href="none" y1="275.844" y2="279.303"><stop offset="0" stop-color="#231f20"/><stop offset="1" stop-color="#fff"/></linearGradient><linearGradient id="m" x1="97.158" x2="93.578" xlink:href="none" y1="299.062" y2="285.868"><stop offset="0" stop-color="#231f20"/><stop offset="1" stop-color="#fff"/></linearGradient><linearGradient id="n" x1="77.294" x2="83.121" xlink:href="none" y1="287.31" y2="279.364"><stop offset="0" stop-color="#231f20"/><stop offset="1" stop-color="#fff"/></linearGradient><linearGradient id="o" x1="57.556" x2="46.039" xlink:href="none" y1="283.84" y2="289.255"><stop offset="0" stop-color="#231f20"/><stop offset="1" stop-color="#fff"/></linearGradient><linearGradient id="p" x1="53.396" x2="57.018" xlink:href="none" y1="264.514" y2="271.942"><stop offset="0" stop-color="#231f20"/><stop offset="1" stop-color="#fff"/></linearGradient><linearGradient id="q" x1="69.903" x2="67.389" xlink:href="none" y1="241.465" y2="232.913"><stop offset="0" stop-color="#231f20"/><stop offset="1" stop-color="#fff"/></linearGradient><linearGradient id="r" x1="96.379" x2="103.485" xlink:href="none" y1="280.698" y2="282.317"><stop offset="0" stop-color="#231f20"/><stop offset="1" stop-color="#fff"/></linearGradient><linearGradient id="s" x1="85.242" x2="76.227" xlink:href="none" y1="256.42" y2="254.801"><stop offset="0" stop-color="#231f20"/><stop offset="1" stop-color="#fff"/></linearGradient><radialGradient id="t" cx="0" cy="0" gradientTransform="matrix(26.2819 0 0 26.6154 91.826 254.777)" r="1" xlink:href="none"><stop offset="0" stop-color="#fff"/><stop offset="1" stop-color="#fff" stop-opacity="0"/></radialGradient><radialGradient id="u" cx="0" cy="0" gradientTransform="matrix(15.2911 0 0 15.485 52.978 304.151)" r="1" xlink:href="none"><stop offset="0" stop-color="#fff"/><stop offset="1" stop-color="#fff" stop-opacity="0"/></radialGradient><radialGradient id="v" cx="0" cy="0" gradientTransform="matrix(-13.14088036 -23.04963152 22.90342337 -13.05752529 50.153509 258.750501)" r="1" xlink:href="none"><stop offset="0" stop-color="#fff"/><stop offset="1" stop-color="#fff" stop-opacity="0"/></radialGradient><radialGradient id="w" cx="0" cy="0" gradientTransform="matrix(-7.64549 -13.4105 13.32544 -7.597 111.803 268.133)" r="1" xlink:href="none"><stop offset="0" stop-color="#fff"/><stop offset="1" stop-color="#fff" stop-opacity="0"/></radialGradient><radialGradient id="x" cx="0" cy="0" gradientTransform="matrix(-13.14088036 23.04963152 -22.90342337 -13.05752529 73.142763 292.077058)" r="1" xlink:href="none"><stop offset="0" stop-color="#fff"/><stop offset="1" stop-color="#fff" stop-opacity="0"/></radialGradient><radialGradient id="y" cx="0" cy="0" gradientTransform="matrix(-7.64549 13.4105 -13.32544 -7.597 51.584 234.55)" r="1" xlink:href="none"><stop offset="0" stop-color="#fff"/><stop offset="1" stop-color="#fff" stop-opacity="0"/></radialGradient><path d="m141.084 264.196c-2.591-38.569-35.565-67.709-73.652-65.086-18.973 1.307-35.632 10.253-47.257 23.667l-.032-.023-.229.327c-11.547 13.48-18.042 31.404-16.752 50.615a72 72 0 0 0 .593 5.418l.035.243q.261 1.767.606 3.503l.013.064a70 70 0 0 0 .697 3.115v.002c7.983 32.242 37.811 55.076 71.708 52.741 38.086-2.623 66.861-36.017 64.27-74.586m-15.046 1.036a55.3 55.3 0 0 1 -.811 13.871l-.029-.078c-5.011-12.405-14.924-21.36-23.641-26.307 1.765-21.019-5.277-29.874-13.246-31.315a10 10 0 0 0 -.656-.106c-6.325-.822-12.109 3.706-12.919 10.111s3.659 12.263 9.984 13.084a11 11 0 0 0 1.638.082c.035.71.057 1.463.063 2.251-7.369-1.849-14.257-2.211-20.537-1.639a59 59 0 0 0 -7.036.901c.784-7.098 3.413-15.066 8.515-20.897 4.932-5.637 12.265-8.868 20.265-8.039 1.517.157 3.135.534 4.591 1.03l.204.065c18.532 7.639 32.168 25.447 33.615 46.986m-48.178 10.692a49.6 49.6 0 0 1 -5.929 7.105c-3.452-3.72-6.225-7.725-8.328-11.869l-.328-.659-.012-.024a50 50 0 0 1 -3.1-8.731c4.912-1.17 9.729-1.6 14.329-1.374l.728.042.027.002c2.881.241 5.889.773 9.001 1.642-1.455 4.891-3.495 9.329-5.988 13.249zm-23.619-58.61-.04.049c-8.099 10.592-10.802 23.755-10.677 33.872-18.856 8.962-22.907 19.565-20.155 27.274a10 10 0 0 0 .237.628c2.46 5.958 9.224 8.767 15.106 6.275s8.657-9.341 6.198-15.298a12 12 0 0 0 -.749-1.477 51 51 0 0 1 1.915-1.195c2.103 7.388 5.214 13.638 8.844 18.86a61 61 0 0 0 4.279 5.709c-6.462 2.863-14.593 4.542-22.132 2.983-7.287-1.507-13.716-6.323-17.007-13.753-.624-1.409-1.11-3.016-1.415-4.541a55 55 0 0 1 -.436-4.04c-1.684-25.075 13.677-47.398 36.032-55.346m21.55 106.231c-14.703 1.013-28.448-4.066-38.835-13.094 13.107 1.807 25.716-2.404 34.305-7.572 17.099 12.065 28.196 10.319 33.414 4.048a10 10 0 0 0 .419-.522c3.865-5.136 2.885-12.473-2.187-16.386s-12.317-2.922-16.182 2.214c-.336.449-.626.917-.889 1.395a52 52 0 0 1 -1.966-1.075c5.272-5.541 9.028-11.405 11.681-17.203a61 61 0 0 0 2.748-6.621c5.682 4.237 11.188 10.531 13.626 17.926 2.354 7.145 1.451 15.191-3.258 21.792-.892 1.252-2.024 2.482-3.176 3.512l-.05.046c-8.238 6.557-18.43 10.767-29.65 11.54" fill="url(#a)" transform="translate(14.755 -155.35)"/><path d="m88.311 221.403-.656-.106a11.4 11.4 0 0 0 -3.28.055c6.613 3.643 11.434 13.793 8.899 33.815-.84 6.631-2.787 12.942-5.599 18.733a62.4 62.4 0 0 1 -9.545 14.835 54 54 0 0 0 5.739 3.818c5.272-5.541 9.028-11.405 11.681-17.203 2.812-5.79 4.759-12.101 5.598-18.732 3.018-23.839-4.391-33.688-12.837-35.215" fill="url(#t)" opacity=".9" transform="translate(14.755 -155.35)"/><path d="m108.029 99.817c2.535-20.022-2.287-30.172-8.899-33.815-.258.041-.511.097-.764.156 6.474 3.769 11.132 13.909 8.632 33.659-.84 6.631-2.787 12.942-5.599 18.733-2.203 4.814-5.182 9.671-9.143 14.354l.629.481a62.4 62.4 0 0 0 9.545-14.835c2.812-5.791 4.759-12.102 5.599-18.733" fill="#fff" opacity=".8"/><path d="m68.14 300.578-1.817-1.483c-9.758 4.123-23.286 6.708-36.718 3.552a54.7 54.7 0 0 0 7.351 7.804c13.107 1.807 25.716-2.404 34.305-7.572a91 91 0 0 1 -3.12-2.301z" fill="url(#u)" opacity=".5" transform="translate(14.755 -155.35)"/><path d="m66.322 299.095-.893-.755c-9.832 3.979-23.422 6.357-36.824 2.975l.998 1.332c13.432 3.156 26.96.571 36.718-3.552z" fill="url(#b)" opacity=".6" transform="translate(14.755 -155.35)"/><path d="m23.372 278.521.237.628a11.7 11.7 0 0 0 1.687 2.849c-.191-7.621 6.079-16.924 24.469-24.712 6.091-2.579 12.461-4.027 18.819-4.456 5.397-.492 11.246-.286 17.46.953.299-2.515.412-4.862.395-6.942-7.375-1.853-14.267-2.215-20.552-1.643-6.358.429-12.728 1.877-18.819 4.456-21.896 9.273-26.614 20.695-23.696 28.867" fill="url(#v)" opacity=".9" transform="translate(14.755 -155.35)"/><path d="m64.52 101.936c-18.39 7.788-24.659 17.091-24.468 24.712a11 11 0 0 0 .516.592c-.014-7.561 6.329-16.717 24.469-24.399 6.091-2.579 12.461-4.027 18.819-4.456 5.218-.475 10.862-.291 16.847.841l.097-.793c-6.214-1.239-12.063-1.445-17.46-.953-6.358.429-12.728 1.877-18.818 4.456z" fill="#fff" opacity=".8"/><path d="m101.166 256.623-.359 2.336c8.404 6.496 17.379 17.068 21.395 30.426a55.4 55.4 0 0 0 2.999-10.349c-5.008-12.398-14.913-21.351-23.628-26.299a92 92 0 0 1 -.407 3.886" fill="url(#w)" opacity=".4" transform="translate(14.755 -155.35)"/><path d="m100.806 258.959-.2 1.16c8.32 6.634 17.149 17.362 20.957 30.807l.639-1.541c-4.016-13.358-12.991-23.93-21.396-30.426" fill="url(#c)" opacity=".5" transform="translate(14.755 -155.35)"/><path d="m104.682 306.912.418-.523a11.7 11.7 0 0 0 1.593-2.904c-6.421 3.978-17.512 3.131-33.367-9.103-5.252-4.052-9.675-8.915-13.221-14.276-3.119-4.488-5.867-9.72-7.915-15.789-2.3.995-4.364 2.07-6.134 3.124 2.103 7.393 5.239 13.62 8.871 18.845 3.546 5.362 7.969 10.225 13.22 14.277 18.878 14.566 31.005 12.993 36.534 6.349z" fill="url(#x)" opacity=".9" transform="translate(14.755 -155.35)"/><path d="m88.081 139.032c15.855 12.234 26.946 13.081 33.367 9.103.094-.247.173-.498.249-.749-6.459 3.793-17.46 2.808-33.1-9.259-5.251-4.052-9.674-8.915-13.22-14.277-3.016-4.338-5.68-9.38-7.704-15.195l-.727.312c2.048 6.069 4.796 11.301 7.915 15.789 3.546 5.361 7.969 10.224 13.22 14.276" fill="#fff" opacity=".8"/><path d="m47.058 249.633 2.177-.852c1.353-10.62 5.906-23.776 15.322-33.978a54 54 0 0 0 -10.349 2.544c-8.098 10.592-10.802 23.755-10.677 33.872a91 91 0 0 1 3.527-1.586" fill="url(#y)" opacity=".3" transform="translate(14.755 -155.35)"/><path d="m49.236 248.781 1.093-.405c1.513-10.613 6.274-23.72 15.867-33.782q-.821.091-1.638.209c-9.416 10.202-13.969 23.358-15.322 33.978" fill="url(#d)" opacity=".4" transform="translate(14.755 -155.35)"/><path d="m67.433 199.11c-18.973 1.307-35.632 10.253-47.257 23.667l-.262.305.001-.001c2.263 2.274 9.66 6.757 12.658 8.626 5.886-6.411 13.286-11.413 21.669-14.393a46 46 0 0 1 1.835-2.253c7.808-8.922 18.471-13.638 30.838-13.638 1.376 0 4.18.222 4.24.226a68 68 0 0 0 -23.722-2.539" fill="url(#e)" opacity=".4" transform="translate(14.755 -155.35)"/><path d="m75.79 323.545c-14.703 1.013-28.448-4.066-38.836-13.094a44 44 0 0 1 -2.907-.494c-11.534-2.387-20.899-9.38-27.082-20.226a41 41 0 0 1 -1.859-3.686c7.983 32.239 37.811 55.072 71.707 52.737.15-3.535-.879-11.737-1.023-15.237" fill="url(#f)" opacity=".4" transform="translate(14.755 -155.35)"/><path d="m141.084 264.196c-2.123-.221-12.496.609-15.046 1.036a55.3 55.3 0 0 1 -.811 13.871 46 46 0 0 1 1.003 2.718c3.726 11.309 2.427 23.018-3.756 33.864a41 41 0 0 1 -2.179 3.412l-.045.062.051-.044c14.039-13.833 22.217-33.578 20.783-54.919" fill="url(#g)" opacity=".4" transform="translate(14.755 -155.35)"/><path d="m87.628 217.151c1.517.157 3.135.534 4.591 1.03l.204.065a54.1 54.1 0 0 1 16.124 10.324l.031.024c2.268-2.626 6.635-5.512 6.635-5.512s-6.687-6.927-16.915-9.077c-7.16-1.505-23.31-2.964-33.496 14.589l.1-.095c.753-1.153 1.555-2.274 2.461-3.309 4.932-5.637 12.265-8.868 20.265-8.039" fill="url(#h)" opacity=".5" transform="translate(14.755 -155.35)"/><path d="m108.664 308.441c-.892 1.251-2.024 2.482-3.176 3.512l-.158.147a54 54 0 0 1 -16.89 8.979l-.036.014c1.112 3.302 1.396 8.575 1.396 8.575s9.267-2.401 16.22-10.296c4.867-5.527 14.189-18.961 4.272-36.67l.03.135c.61 1.237 1.168 2.5 1.6 3.812 2.355 7.145 1.452 15.191-3.258 21.792" fill="url(#i)" opacity=".5" transform="translate(14.755 -155.35)"/><path d="m20.084 281.261c-.624-1.408-1.111-3.016-1.415-4.541l-.046-.212a55.6 55.6 0 0 1 .767-19.302l.005-.039c-3.38-.676-8.031-3.064-8.031-3.064s-2.58 9.329.695 19.373c2.293 7.033 9.12 21.926 29.224 22.082l-.131-.041c-1.363-.084-2.722-.226-4.061-.503a23.72 23.72 0 0 1 -17.007-13.753" fill="url(#j)" opacity=".5" transform="translate(14.755 -155.35)"/><path d="m84.72 244.492c.552.071 1.097.091 1.638.082 0 0-.361-7.273-1.243-11.005s-2.182-6.203-3.611-7.601c-1.023-1.002-4.255-2.25-6.768 5.44-.811 6.405 3.659 12.263 9.984 13.084" fill="url(#k)" opacity=".6" transform="translate(14.755 -155.35)"/><path d="m44.913 270.126a12 12 0 0 0 -.749-1.478s-6.039 3.953-8.79 6.593-4.213 5.015-4.695 6.968c-.345 1.398.203 4.856 8.036 3.215 5.883-2.491 8.657-9.341 6.198-15.298" fill="url(#l)" opacity=".5" transform="translate(14.755 -155.35)"/><path d="m86.733 292.214c-.336.449-.626.917-.889 1.396 0 0 6.401 3.32 10.033 4.412s6.395 1.187 8.307.634c1.368-.397 4.051-2.607-1.269-8.655-5.072-3.915-12.316-2.923-16.182 2.213" fill="url(#m)" opacity=".6" transform="translate(14.755 -155.35)"/><path d="m84.247 262.058c-1.455 4.891-3.495 9.329-5.988 13.249l-.4.617a49.6 49.6 0 0 1 -5.929 7.105 56 56 0 0 0 5.173 4.921 53.6 53.6 0 0 0 6.765 4.603c5.272-5.541 9.028-11.405 11.681-17.203a61 61 0 0 0 2.748-6.621c-2.432-1.813-4.896-3.255-7.166-4.235a54 54 0 0 0 -6.885-2.436z" fill="url(#n)" opacity=".3" transform="translate(14.755 -155.35)"/><path d="m36.955 310.451c13.107 1.807 25.716-2.404 34.305-7.572a90 90 0 0 1 -3.12-2.301 58.5 58.5 0 0 1 -8.941-8.567c-6.462 2.863-14.593 4.542-22.132 2.983-7.287-1.507-13.716-6.323-17.007-13.753-.624-1.409-1.11-3.016-1.415-4.541a54.75 54.75 0 0 0 18.31 33.751" fill="url(#o)" opacity=".3" transform="translate(14.755 -155.35)"/><path d="m71.931 283.029c-3.451-3.72-6.224-7.725-8.328-11.869l-.328-.659-.012-.024a50 50 0 0 1 -3.1-8.731 55 55 0 0 0 -6.78 2.072 53 53 0 0 0 -7.306 3.624c2.103 7.388 5.214 13.638 8.844 18.86a61 61 0 0 0 4.279 5.709c2.771-1.226 5.24-2.668 7.216-4.171a54.5 54.5 0 0 0 5.517-4.811z" fill="url(#p)" opacity=".3" transform="translate(14.755 -155.35)"/><path d="m54.2 217.363c-8.099 10.592-10.802 23.755-10.677 33.872a89 89 0 0 1 3.542-1.593 57.7 57.7 0 0 1 11.783-3.555c.784-7.098 3.413-15.066 8.515-20.897 4.932-5.637 12.265-8.868 20.265-8.039 1.517.157 3.135.534 4.591 1.03l.204.065a53 53 0 0 0 -23.967-3.899 53.3 53.3 0 0 0 -14.215 2.967z" fill="url(#q)" opacity=".3" transform="translate(14.755 -155.35)"/><path d="m125.198 279.025c-5.011-12.405-14.924-21.36-23.641-26.307a91 91 0 0 1 -.409 3.9 59.6 59.6 0 0 1 -2.85 12.111c5.682 4.237 11.188 10.531 13.626 17.926 2.354 7.145 1.451 15.191-3.258 21.792-.892 1.252-2.024 2.482-3.176 3.512l-.05.046a55.02 55.02 0 0 0 19.787-32.902z" fill="url(#r)" opacity=".3" transform="translate(14.755 -155.35)"/><path d="m58.807 254.505a56 56 0 0 0 1.356 7.241c4.912-1.17 9.729-1.6 14.329-1.374l.728.042.027.002c2.881.241 5.889.773 9.001 1.642a57 57 0 0 0 1.62-6.987c.434-3.017.573-5.808.553-8.246-7.369-1.849-14.257-2.211-20.537-1.639a59 59 0 0 0 -7.036.901c-.336 3.045-.339 5.932-.041 8.418" fill="url(#s)" opacity=".3" transform="translate(14.755 -155.35)"/></svg>