<svg xmlns="http://www.w3.org/2000/svg" viewBox="0 0.18 121.38 121.15">
  <path fill="#fff" d="M25.222 57.766a5.146 5.146 0 0 1 5.168-5.143l8.568.028a5.15 5.15 0 0 1 5.151 5.151v32.4l3.559-.911a4.29 4.29 0 0 0 3.309-4.177V44.927a5.15 5.15 0 0 1 5.151-5.152h8.594a5.15 5.15 0 0 1 5.151 5.152v37.3l4.243-1.754a4.3 4.3 0 0 0 2.625-3.957V32.049a5.15 5.15 0 0 1 5.15-5.151h8.585a5.15 5.15 0 0 1 5.146 5.151v36.617c7.443-5.394 14.986-11.882 20.972-19.683a8.65 8.65 0 0 0 1.316-8.072A60.64 60.64 0 0 0 68.303.67 60.64 60.64 0 0 0 8.055 91.019a7.67 7.67 0 0 0 7.316 3.79c1.624-.143 3.646-.345 6.05-.627a4.29 4.29 0 0 0 3.805-4.258V57.766"/>
  <path fill="#f0b90b" d="M25.039 109.727a60.66 60.66 0 0 0 96.339-49.061l-.158-4.152c-22.163 33.055-63.085 48.508-96.181 53.213"/>
</svg>
