<svg xmlns="http://www.w3.org/2000/svg" fill="none" viewBox="0 0 400 400"><title>cow-protocol</title><rect width="400" height="400" fill="#f996ee" rx="200"/><path fill="#490072" fill-rule="evenodd" d="M166.774 304a30.67 30.67 0 0 1-29.237-21.395l-20.779-65.494h-12.774a30.67 30.67 0 0 1-29.237-21.395L62.4 156.8h46.31L84.284 120h231.432l-24.425 36.8H337.6l-12.346 38.916c-4.041 12.74-15.87 21.395-29.237 21.395h-12.775l-20.778 65.494A30.67 30.67 0 0 1 233.227 304zm-15.698-104.778c0 9.88 7.378 17.889 16.478 17.889s16.479-8.009 16.479-17.889-7.378-17.889-16.479-17.889-16.478 8.009-16.478 17.889m97.849 0c0 9.88-7.378 17.889-16.478 17.889s-16.479-8.009-16.479-17.889 7.378-17.889 16.479-17.889 16.478 8.009 16.478 17.889" clip-rule="evenodd"/></svg>