<svg xmlns="http://www.w3.org/2000/svg" fill="none" viewBox="0 0 1024 1024"><title>crossbell-alt</title><clipPath id="crossbell-alt_svg__a"><path d="M0 .333h1024v1023H0z"/></clipPath><g fill="#e7b75b" clip-path="url(#crossbell-alt_svg__a)"><path d="M666.281 942.436c0 44.679-69.077 80.894-154.281 80.894s-154.32-36.215-154.32-80.894z"/><path d="m389.588 400.7-250.701 44.898C138.887 199.696 292.317.333 481.6.333l-1.547 323.372z"/><path d="m467.444 564.282-13.498 133.929-18.332 182.038c-1.509.219-3.056.365-4.603.511-61.534 6.054-147.86-12.401-234.032-54.309C92.823 775.717 17.946 704.922-.001 646.93c26.294-1.893 51.759-9.535 74.376-22.322 31.25-17.033 54.379-40.12 65.17-62.296a70 70 0 0 0 3.867-9.665 49.3 49.3 0 0 0 2.244-24.255l243.662-37.896z"/><path d="m634.295 400.7 250.701 44.898C885.112 199.696 731.644.333 542.399.333l1.547 323.372z"/><path d="m556.555 564.282 13.498 133.929 18.333 182.038c1.508.219 3.055.365 4.602.511 61.535 6.054 147.861-12.401 234.032-54.309C931.253 775.717 1006.05 704.922 1024 646.93c-26.294-1.893-51.758-9.535-74.375-22.322-31.251-17.033-54.38-40.12-65.17-62.296a69.6 69.6 0 0 1-3.868-9.665 49.3 49.3 0 0 1-2.243-24.255l-243.662-37.896z"/></g></svg>