<svg xmlns="http://www.w3.org/2000/svg" fill="none" viewBox="0 0 125 34"><linearGradient id="crossbell_svg__a" x1="4" x2="125" y1="21" y2="21" gradientUnits="userSpaceOnUse"><stop offset="0" stop-color="#f6c549"/><stop offset=".234" stop-color="#e65040"/><stop offset=".505" stop-color="#9688f2"/><stop offset=".76" stop-color="#5b89f7"/><stop offset="1" stop-color="#6ad991"/></linearGradient><path stroke="url(#crossbell_svg__a)" stroke-width="4.5" d="M4 17.75h121"/><path fill="currentColor" d="M19.669 23.78q-1.484 1.793-3.5 2.744-2.016.924-4.508.924-2.24 0-4.172-.812-1.904-.812-3.304-2.212c-1.4-1.4-1.67-2.035-2.212-3.304q-.812-1.932-.812-4.144c0-2.212.27-2.847.812-4.116q.812-1.932 2.212-3.332a10.4 10.4 0 0 1 3.304-2.212q1.932-.812 4.172-.812 2.408 0 4.228.84 1.848.84 3.276 2.436l-2.66 2.576a7 7 0 0 0-2.072-1.652q-1.148-.616-2.744-.616-1.4 0-2.632.504a6.35 6.35 0 0 0-2.156 1.372q-.896.895-1.428 2.184-.532 1.26-.532 2.828c0 1.568.177 1.997.532 2.856q.532 1.26 1.428 2.156a6.7 6.7 0 0 0 2.156 1.4 7.2 7.2 0 0 0 2.632.476q1.68 0 2.968-.672 1.316-.7 2.324-1.96zm2.313-10.5h3.444v1.904h.224q.252-.504.672-.924c.42-.42.588-.523.924-.728a5 5 0 0 1 1.12-.476q.616-.168 1.204-.168.728 0 1.232.14.532.14.896.364l-.98 3.332a3 3 0 0 0-.756-.252 3.6 3.6 0 0 0-.98-.112q-.756 0-1.372.308a3 3 0 0 0-1.064.812q-.42.532-.672 1.26a5 5 0 0 0-.224 1.54V27h-3.668zm17.05-.448q1.597 0 2.913.56a6.5 6.5 0 0 1 2.296 1.512 6.5 6.5 0 0 1 1.512 2.296q.56 1.344.56 2.94c0 1.596-.187 2.044-.56 2.94a6.8 6.8 0 0 1-1.512 2.324 7 7 0 0 1-2.296 1.512q-1.316.532-2.912.532c-1.596 0-2.044-.177-2.94-.532a7.4 7.4 0 0 1-2.296-1.512 7.4 7.4 0 0 1-1.512-2.324q-.532-1.344-.532-2.94c0-1.596.177-2.044.532-2.94a7 7 0 0 1 1.512-2.296 6.8 6.8 0 0 1 2.296-1.512q1.344-.56 2.94-.56m0 11.228q.7 0 1.345-.252.672-.28 1.176-.784c.504-.504.597-.747.784-1.232q.308-.728.308-1.652c0-.924-.103-1.167-.308-1.652q-.28-.728-.784-1.232c-.504-.504-.728-.588-1.176-.756a3.3 3.3 0 0 0-1.344-.28q-.729 0-1.372.28-.644.252-1.148.756c-.504.504-.607.747-.812 1.232q-.28.728-.28 1.652c0 .924.093 1.167.28 1.652q.308.728.812 1.232c.504.504.718.597 1.148.784q.644.252 1.372.252m14.933 3.388q-1.344 0-2.408-.336a7.2 7.2 0 0 1-1.82-.868 6.4 6.4 0 0 1-1.288-1.26 6.3 6.3 0 0 1-.812-1.456l3.276-1.4q.476 1.064 1.26 1.596a3.33 3.33 0 0 0 1.792.504q1.008 0 1.596-.364c.588-.364.588-.532.588-.868q0-.56-.504-.896-.475-.364-1.68-.644l-1.932-.42a7 7 0 0 1-1.344-.448 5.3 5.3 0 0 1-1.232-.784 4 4 0 0 1-.924-1.148q-.364-.672-.364-1.568 0-1.009.42-1.792.448-.784 1.204-1.316a5.3 5.3 0 0 1 1.764-.84 7.7 7.7 0 0 1 2.212-.308q1.96 0 3.5.784 1.54.756 2.268 2.436l-3.164 1.288q-.392-.811-1.148-1.176c-.756-.365-1.008-.364-1.512-.364q-.784 0-1.372.336-.588.308-.588.812 0 .476.476.756.504.28 1.344.504l2.1.504q2.1.504 3.108 1.624a3.65 3.65 0 0 1 1.036 2.604q0 .896-.42 1.708c-.42.812-.681 1.027-1.204 1.456q-.756.615-1.848.98-1.065.364-2.38.364m13.535 0q-1.344 0-2.408-.336a7.2 7.2 0 0 1-1.82-.868 6.4 6.4 0 0 1-1.288-1.26 6.3 6.3 0 0 1-.812-1.456l3.276-1.4q.475 1.064 1.26 1.596a3.33 3.33 0 0 0 1.792.504q1.008 0 1.596-.364c.588-.364.588-.532.588-.868q0-.56-.504-.896-.475-.364-1.68-.644l-1.932-.42a7 7 0 0 1-1.344-.448q-.672-.308-1.232-.784c-.56-.476-.681-.7-.924-1.148s-.364-.97-.364-1.568q0-1.009.42-1.792.448-.784 1.204-1.316a5.3 5.3 0 0 1 1.764-.84 7.7 7.7 0 0 1 2.212-.308q1.96 0 3.5.784 1.54.756 2.268 2.436L69.91 17.34q-.392-.811-1.148-1.176c-.756-.365-1.008-.364-1.512-.364q-.784 0-1.372.336-.588.308-.588.812 0 .476.476.756.504.28 1.344.504l2.1.504q2.1.504 3.108 1.624a3.65 3.65 0 0 1 1.036 2.604q0 .896-.42 1.708c-.42.812-.681 1.027-1.204 1.456q-.756.615-1.848.98-1.065.364-2.38.364m8.103-20.496h3.668v6.02l-.224 1.96h.224q.504-.868 1.568-1.484 1.065-.615 2.632-.616 1.317 0 2.492.56a6.2 6.2 0 0 1 2.1 1.512q.924.952 1.456 2.296t.532 2.94c0 1.596-.177 2.044-.532 2.94a7.2 7.2 0 0 1-1.456 2.324 6.8 6.8 0 0 1-2.1 1.512 6 6 0 0 1-2.492.532q-1.567 0-2.632-.616-1.064-.615-1.568-1.484h-.224V27h-3.444zm7.112 17.108q.728 0 1.372-.28.672-.28 1.176-.784c.504-.504.607-.747.812-1.232q.308-.728.308-1.624c0-.896-.102-1.139-.308-1.624q-.308-.728-.812-1.232c-.504-.504-.728-.597-1.176-.784a3.4 3.4 0 0 0-1.372-.28q-.728 0-1.4.28-.645.252-1.148.756c-.503.504-.607.747-.812 1.232q-.308.728-.308 1.652c0 .924.103 1.167.308 1.652q.308.728.812 1.232c.504.504.719.597 1.148.784q.672.252 1.4.252m22.669-.364a7.64 7.64 0 0 1-2.576 2.716q-1.596 1.035-3.92 1.036a7.8 7.8 0 0 1-2.912-.532 7.2 7.2 0 0 1-2.296-1.54 7.2 7.2 0 0 1-1.54-2.296q-.532-1.344-.532-2.94a7.4 7.4 0 0 1 .532-2.8q.533-1.344 1.484-2.324a7.1 7.1 0 0 1 2.24-1.596q1.317-.588 2.884-.588 1.653 0 2.94.56a5.8 5.8 0 0 1 2.156 1.512 6.35 6.35 0 0 1 1.316 2.268q.448 1.316.448 2.856v.336a2 2 0 0 0-.028.308 1.6 1.6 0 0 0-.028.308H95.22q.112.84.448 1.456.364.588.868 1.008a4 4 0 0 0 1.148.588q.615.168 1.26.168 1.26 0 2.072-.56a4.26 4.26 0 0 0 1.316-1.456zm-3.332-5.32q-.027-.364-.252-.812a2.55 2.55 0 0 0-.616-.84 3 3 0 0 0-1.008-.644q-.588-.252-1.428-.252-1.175 0-2.072.672-.895.672-1.26 1.876zM107.951 27V6.952h3.668V27zm6.808 0V6.952h3.668V27z"/></svg>