<svg viewBox="296 100.4 712.4 712.4" xmlns="http://www.w3.org/2000/svg" xmlns:xlink="http://www.w3.org/1999/xlink"><linearGradient id="a" gradientUnits="userSpaceOnUse" x1="295.945" x2="1008.445" y1="456.639" y2="456.639"><stop offset="0" stop-color="#513eff"/><stop offset=".18" stop-color="#5157ff"/><stop offset=".57" stop-color="#5298ff"/><stop offset="1" stop-color="#52e5ff"/></linearGradient><circle cx="652.2" cy="456.6" fill="url(#a)" r="356.2"/><path d="m470.2 311.3c5.1-9.6 12.5-17.8 21.6-23.8l151.5-106.2-155.2 257.5s-13.6-23-18.9-34.6c-13.3-29.7-12.9-63.7 1-92.9m-62.5 177.6c3.4 49.8 28.1 95.7 67.8 125.9l167.6 117.2s-104.8-151.6-193.3-302.4c-9-15.9-15-33.4-17.8-51.4-1.2-8.2-1.2-16.5 0-24.7l-6.8 13.1c-9 18.4-15.1 38-18.1 58.2a361.3 361.3 0 0 0 .6 64.1m427.2 20.4c-5.4-11.6-18.9-34.6-18.9-34.6l-154.9 257.3 151.5-106c9-6.1 16.4-14.2 21.6-23.8 14-29.3 14.3-63.3 1-92.9zm61.5-84.8c-3.4-49.8-28.1-95.7-67.8-125.9l-167.3-117.3s104.8 151.6 193.2 302.4c8.9 15.9 14.9 33.4 17.7 51.4 1.2 8.2 1.2 16.5 0 24.7l6.8-13.1c9-18.4 15.1-38 18.1-58.2 1.8-21.4 1.6-42.8-.5-64.2z" fill="#fff"/></svg>