<svg xmlns="http://www.w3.org/2000/svg" fill="currentColor" viewBox="0 0 72.52 80.95">
  <path d="M9.28 32.75c.8 1.71 2.78 5.09 2.78 5.09L34.95 0 12.61 15.6a9.75 9.75 0 0 0-3.18 3.5 16.19 16.19 0 0 0-.15 13.65M.21 45.21a25.47 25.47 0 0 0 10 18.51l24.71 17.23S19.46 58.67 6.42 36.5a22.4 22.4 0 0 1-2.62-7.56 12.1 12.1 0 0 1 0-3.63l-1 1.92a29.4 29.4 0 0 0-2.67 8.55 52.3 52.3 0 0 0 .08 9.43m63.04 2.99c-.8-1.71-2.78-5.09-2.78-5.09L37.58 80.95l22.34-15.59a9.75 9.75 0 0 0 3.18-3.5 16.19 16.19 0 0 0 .15-13.66m9.07-12.46a25.47 25.47 0 0 0-10-18.51L37.61 0s15.45 22.28 28.5 44.45a22.4 22.4 0 0 1 2.61 7.56 12.1 12.1 0 0 1 0 3.63l1-1.92a29.4 29.4 0 0 0 2.67-8.55 52.3 52.3 0 0 0-.07-9.43"/>
</svg>
