<svg viewBox="0 0 72.52 80.95" xmlns="http://www.w3.org/2000/svg" xmlns:xlink="http://www.w3.org/1999/xlink"><linearGradient id="a" gradientUnits="userSpaceOnUse" x1="41.95" x2="12.57" y1="2.57" y2="34.42"><stop offset=".58" stop-color="#a0a8d4"/><stop offset=".73" stop-color="#8791c7"/><stop offset=".91" stop-color="#6470b4"/></linearGradient><linearGradient id="b" gradientUnits="userSpaceOnUse" x1="42.26" x2="42.26" y1="1.24" y2="82.84"><stop offset="0" stop-color="#513eff"/><stop offset=".18" stop-color="#5157ff"/><stop offset=".57" stop-color="#5298ff"/><stop offset="1" stop-color="#52e5ff"/></linearGradient><path d="m15.28 34.39c.8 1.71 2.78 5.09 2.78 5.09l22.89-37.84-22.34 15.6a9.75 9.75 0 0 0 -3.18 3.5 16.19 16.19 0 0 0 -.15 13.65" fill="url(#a)" transform="translate(-6 -1.64)"/><path d="m.21 45.21a25.47 25.47 0 0 0 10 18.51l24.71 17.23s-15.46-22.28-28.5-44.45a22.4 22.4 0 0 1 -2.62-7.56 12.1 12.1 0 0 1 0-3.63l-1 1.92a29.4 29.4 0 0 0 -2.67 8.55 52.3 52.3 0 0 0 .08 9.43" fill="#a0a8d4"/><path d="m69.25 49.84c-.8-1.71-2.78-5.09-2.78-5.09l-22.89 37.84 22.34-15.59a9.75 9.75 0 0 0 3.18-3.5 16.19 16.19 0 0 0 .15-13.66" fill="none" transform="translate(-6 -1.64)"/><path d="m72.32 35.74a25.47 25.47 0 0 0 -10-18.51l-24.71-17.23s15.45 22.28 28.5 44.45a22.4 22.4 0 0 1 2.61 7.56 12.1 12.1 0 0 1 0 3.63l1-1.92a29.4 29.4 0 0 0 2.67-8.55 52.3 52.3 0 0 0 -.07-9.43" fill="#a0a8d4"/><path d="m15.43 20.74a9.75 9.75 0 0 1 3.18-3.5l22.34-15.6-22.89 37.85-2.78-5.09a16.19 16.19 0 0 1 .15-13.66m-9.22 26.11a25.47 25.47 0 0 0 10 18.51l24.71 17.23s-15.46-22.28-28.5-44.45a22.4 22.4 0 0 1 -2.62-7.56 12.1 12.1 0 0 1 0-3.63l-1 1.92a29.4 29.4 0 0 0 -2.67 8.55 52.3 52.3 0 0 0 .08 9.43m63 3c-.8-1.71-2.78-5.09-2.78-5.09l-22.85 37.83 22.34-15.59a9.75 9.75 0 0 0 3.18-3.5 16.19 16.19 0 0 0 .15-13.66zm9.07-12.46a25.47 25.47 0 0 0 -10-18.51l-24.67-17.24s15.45 22.28 28.5 44.45a22.4 22.4 0 0 1 2.61 7.56 12.1 12.1 0 0 1 0 3.63l1-1.92a29.4 29.4 0 0 0 2.67-8.55 52.3 52.3 0 0 0 -.07-9.43z" fill="url(#b)" transform="translate(-6 -1.64)"/></svg>