<svg xmlns="http://www.w3.org/2000/svg" xml:space="preserve" viewBox="0 0 1000 436">
  <path d="M78.92 336.29v.23c0 54.94 44.58 99.48 99.56 99.48h42.07v-25.8h-41.4c-41.32 0-74.71-33.91-73.82-75.39.86-40.34 34.8-72.16 75.18-72.16h40.04v-25.56H178.2c-54.83 0-99.28 44.41-99.28 99.2m749.84-99.2h-92.8V436h25.6V329.66c0-37.01 30.03-67.02 67.07-67.02s67.07 30 67.07 67.02V436h25.37V329.33c.01-50.95-41.32-92.24-92.31-92.24m-463.18 66.68c0 5.5-1.95 10.14-5.83 13.92-3.89 3.79-8.49 5.68-13.79 5.68H286.8c-5.5 0-10.15-1.89-13.94-5.68s-5.69-8.43-5.69-13.92v-66.68h-25.6V436h25.6v-68.01c0-5.49 1.89-10.13 5.69-13.92 3.79-3.79 8.44-5.68 13.94-5.68h59.15c5.31 0 9.91 1.9 13.79 5.68 3.88 3.79 5.83 8.43 5.83 13.92V436h25.31V237.09h-25.31v66.68zm242.44-66.68V436h106.91V237.09zm53.46 94.45c-19.08 0-34.54-15.46-34.54-34.54s15.46-34.54 34.54-34.54 34.54 15.46 34.54 34.54-15.46 34.54-34.54 34.54m-147.15-83.87c-3.38-7.49-8.16-11.24-14.35-11.24s-10.97 3.75-14.35 11.24L400.39 436h198.34zm-14.35 155.66c-19.08 0-34.54-15.46-34.54-34.54s15.46-34.54 34.54-34.54 34.54 15.46 34.54 34.54-15.46 34.54-34.54 34.54M673 .55h63.38v25.68h-58.61c-9.67 0-17.59 2.8-23.75 8.38-6.17 5.59-9.25 12.93-9.25 22.03 0 9.29 3.08 16.73 9.25 22.31 6.16 5.59 14.08 8.38 23.75 8.38h58.61V199.5H608.43v-25.73h67.07c10.43 0 18.92-2.94 25.46-8.81s9.81-13.36 9.81-22.45q0-13.635-9.81-22.17c-6.54-5.68-15.03-8.53-25.46-8.53l-8.51.15c-27.37 0-49.6-22.08-49.77-49.42l-.04-6v-.22C617.17 25.52 642.17.55 673 .55m265.45 0h61.41v25.68h-56.64c-9.67 0-17.59 2.8-23.75 8.38-6.17 5.59-9.25 12.93-9.25 22.03 0 9.29 3.08 16.73 9.25 22.31 6.16 5.59 14.08 8.38 23.75 8.38h56.64v55.33c0 31.4-25.47 56.85-56.89 56.85H877.8v-25.73h61.19c10.43 0 18.92-2.94 25.46-8.81s9.81-13.36 9.81-22.45q0-13.635-9.81-22.17c-6.54-5.68-15.03-8.38-25.46-8.38h-56l-.35-55.43v-.22C882.63 25.52 907.62.55 938.45.55M99.7.55h71.69v25.68h-69.7q-19.635 0-36.27 9.81c-11.09 6.54-19.87 15.45-26.31 26.72-6.45 11.28-9.67 23.55-9.67 36.81 0 13.27 3.22 26.66 9.67 37.84 6.44 11.18 15.22 20.04 26.31 26.57q16.65 9.81 36.27 9.81h42.38v-61.81H75.24V86.95h96.15V199.5H99.77C44.76 199.55.14 155 .14 100.03.14 45.09 44.72.55 99.7.55m280.51 92.36v106.67h-25.37V93.24c0-37.01-30.03-67.02-67.07-67.02s-67.07 30-67.07 67.02v106.34h-25.6V.66h92.8c50.98 0 92.31 41.3 92.31 92.25M753.36.59v198.92h106.91V.59zm53.46 94.53c-19.08 0-34.54-15.46-34.54-34.54s15.46-34.54 34.54-34.54 34.54 15.46 34.54 34.54-15.47 34.54-34.54 34.54M587.54 49.39c-9.13-15.36-21.45-27.43-36.93-36.22C535.12 4.4 518.25 0 499.99 0c-17.71 0-34.44 4.4-50.2 13.17-15.77 8.78-28.08 20.86-36.93 36.22-8.86 15.37-13.28 32.1-13.28 50.22 0 18.11 4.42 34.86 13.28 50.21 8.84 15.37 21.16 27.57 36.93 36.63s32.49 13.58 50.2 13.58c18.25 0 35.12-4.53 50.62-13.58 15.48-9.06 27.8-21.26 36.93-36.63 9.13-15.36 13.69-32.11 13.69-50.21 0-18.12-4.56-34.85-13.69-50.22m-87.13 85.31c-19.13 0-34.63-15.51-34.63-34.65s15.51-34.65 34.63-34.65 34.63 15.51 34.63 34.65-15.5 34.65-34.63 34.65" style="fill:currentColor"/>
</svg>
