<svg fill="none" height="180" viewBox="0 0 212 180" width="212" xmlns="http://www.w3.org/2000/svg" xmlns:xlink="http://www.w3.org/1999/xlink"><clipPath id="a"><path d="m0 0h212v180h-212z"/></clipPath><g clip-path="url(#a)"><path d="m198.89 109.523c0 4.146-.753 8.111-2.13 11.767-4.714 12.487-16.691 21.357-30.727 21.357-14.364 0-26.57-9.292-31.039-22.24-26.536 1.923-41.7099-10.035-48.0192-32.8271-15.9377-4.37-27.6525-19.0618-27.6525-36.5163 0-11.2886 4.9031-21.4251 12.6792-28.3542 6.6168-5.9061 15.3193-9.4889 24.8527-9.4889 10.9218 0 20.7568 4.7016 27.6068 12.2171 4.608-3.0378 10.114-4.7987 16.028-4.7987 4.127 0 8.061.861 11.626 2.4135 10.314 4.4886 17.567 14.7702 17.728 26.7798.006.1404.006.2754.006.4163l-.006.5008v.0055c1.5-.332 3.056-.5063 4.658-.5063 7.152 0 13.506 3.4538 17.51 8.7971h.007c2.777 3.7069 4.423 8.3246 4.423 13.3309.01 5.1919-1.804 10.2195-5.121 14.191-.249.3063-.508.6046-.776.8943 5.194 5.8555 8.346 13.5892 8.346 22.0612" fill="#ff5caa"/><path d="m140.126 48.3882c-5.944 6.514-9.575 15.209-9.575 24.7595 0 20.1987 16.24 36.5733 36.273 36.5733 2.585.002 5.162-.274 7.689-.823m-79.2435-72.3156c.9075 13.2093 11.8225 23.6411 25.1535 23.6411m40.099-4.9054c2.696-2.2587 5.894-3.8255 9.321-4.5666m-45.381-25.3177c-4.223 2.7725-7.693 6.6148-10.03 11.1486" stroke="#103849" stroke-linecap="round" stroke-linejoin="round" stroke-miterlimit="10" stroke-width="4.48173"/><path d="m198.89 109.517c0 18.297-14.71 33.125-32.857 33.125-14.364 0-26.57-9.292-31.039-22.241-26.536 1.924-41.7099-10.034-48.0192-32.8264-15.9377-4.3701-27.6525-19.0619-27.6525-36.5164 0-20.9011 16.802-37.8431 37.5319-37.8431 10.9218 0 20.7568 4.7016 27.6068 12.2171 4.608-3.0378 10.114-4.7987 16.028-4.7987 16.216 0 29.36 13.2583 29.36 29.6097l-.006.5007v.0055c1.5-.332 3.056-.5062 4.658-.5062 12.116 0 21.94 9.9049 21.94 22.1279 0 5.8331-2.237 11.1317-5.897 15.0854 5.194 5.8554 8.346 13.5895 8.346 22.0615z" stroke="#103849" stroke-linejoin="round" stroke-miterlimit="10" stroke-width="3.92125"/><path d="m190.546 87.4565s-2.547-2.6649-6.031-5.4387m-91.9438 65.5122c-1.438-3.029-2.3582-6.281-2.7216-9.619" stroke="#103849" stroke-linecap="round" stroke-linejoin="round" stroke-miterlimit="10" stroke-width="4.48173"/><path d="m156.992 124.493c1.161 3.249 1.754 6.677 1.751 10.13 0 17.764-15.463 32.157-34.542 32.157-14.147 0-26.303-7.914-31.6357-19.248-4.3952 3.01-9.6677 4.765-15.3298 4.765-12.6959 0-23.4071-8.809-26.7651-20.857-2.3975.602-4.8592.907-7.3301.905-16.5849 0-30.0348-13.556-30.0348-30.284 0-12.8472 7.938-23.8265 19.1395-28.2198-.4405-1.8389-.6748-3.7457-.6748-5.7032 0-15.1701 13.98-27.4661 31.2284-27.4661 9.902 0 18.7375 4.0604 24.4556 10.3828 4.586-2.4805 9.8744-3.903 15.5088-3.903 17.477 0 31.646 13.6628 31.646 30.5145.002.3974-.007.7949-.028 1.1918 14.421 2.6661 25.382 16.0202 25.382 32.096 0 4.831-.987 9.416-2.771 13.538" fill="#ff5caa"/><g stroke="#103849" stroke-linejoin="round" stroke-miterlimit="10"><path d="m145.791 109.524c5.148 3.835 9.087 9.022 11.207 14.973m-106.5211 6.946c-.7142-2.553-1.0936-5.248-1.0936-8.038 0-11.385 6.354-21.233 15.5811-25.9412m-24.8911-25.5201c-2.7333.2814-5.3554.9285-7.8213 1.9013m55.0154-22.7809-.0062-.0055m0 0c-3.9212 2.1376-7.3239 5.0518-9.9849 8.5279" stroke-linecap="round" stroke-width="4.48173"/><path d="m157.008 124.495c1.161 3.249 1.753 6.677 1.751 10.13 0 17.764-15.464 32.157-34.543 32.157-14.146 0-26.3023-7.914-31.6351-19.248-4.3952 3.01-9.6677 4.764-15.3297 4.764-12.696 0-23.4072-8.808-26.7651-20.856-2.3976.602-4.8593.907-7.3302.905-16.5849 0-30.0348-13.556-30.0348-30.284 0-12.8472 7.9381-23.8266 19.1396-28.2199-.4406-1.8389-.6749-3.7457-.6749-5.7031 0-15.1702 13.98-27.4662 31.2285-27.4662 9.9019 0 18.7375 4.0604 24.4556 10.3829 4.5859-2.4806 9.8743-3.9031 15.5091-3.9031 17.477 0 31.646 13.6629 31.646 30.5146.002.3974-.008.7948-.028 1.1917 14.421 2.6662 25.382 16.0202 25.382 32.0961 0 4.831-.987 9.416-2.772 13.538z" stroke-width="3.92125"/><path d="m107.388 87.9263c5.556-5.8946 13.227-9.5454 21.694-9.5454 1.808 0 3.577.1632 5.3.483m-1.987 38.3151c-4.377 5.519-11.112 9.055-18.666 9.055-13.193 0-23.8872-10.784-23.8872-24.085-.0084-5.5546 1.8951-10.9396 5.3855-15.2364" stroke-linecap="round" stroke-width="4.48173"/><path d="m124.299 138.158c0-4.73-1.183-9.179-3.27-13.066m-46.6524-2.317c3.9383-5.884 10.0698-10.142 17.2158-11.587m-59.8014-9.102c3.0258-1.208 6.2512-1.829 9.5058-1.828 5.2184-.007 10.315 1.59 14.6097 4.58m24.9949-24.919c-1.6255.4826-3.3459.7412-5.1265.7412-4.726.0063-9.2666-1.8538-12.6492-5.1817m96.1723 3.2661c2.501-1.8811 5.538-2.8951 8.658-2.8902.867-.0005 1.732.077 2.585.2316" stroke-linecap="round" stroke-width="4.48173"/><path d="m193.124 87.4744c3.414-4.2714 5.277-9.5678 5.277-15.0976 0-13.287-10.719-24.0972-23.893-24.0972-.921 0-1.84.054-2.751.1603-.932-16.5741-14.598-29.7691-31.262-29.7691-5.556 0-10.954 1.4668-15.709 4.2562-7.409-7.4655-17.452-11.664-27.9261-11.675-17.5559 0-32.4656 11.6159-37.5837 27.623-16.6406 1.5698-29.6478 14.0949-29.6478 29.2663 0 1.5098.1309 3.0222.3891 4.5139-11.5082 5.2007-18.8534 16.5686-18.8534 29.4088 0 17.784 14.3494 32.253 31.987 32.253 2.0141 0 4.0239-.189 6.003-.566 4.1864 12.169 15.4887 20.517 28.0927 20.517 5.1141.004 10.1388-1.352 14.5678-3.93 6.2357 11.255 18.7094 18.414 32.3974 18.414 16.665 0 30.747-10.504 35.098-24.8 2.188.434 4.439.664 6.729.664 19.194 0 34.81-15.744 34.81-35.093 0-8.061-2.731-15.8249-7.725-22.049z" stroke-width="7.84292"/></g><path d="m96.853 0c-10.3128 0-20.2328 3.09647-28.6872 8.95402-7.3 5.05768-13.0867 11.87958-16.9091 19.88998-18.6061 4.5464-31.9088 19.6435-32.7497 37.4959-11.51616 8.0622-18.507 21.374-18.507 35.7221 0 23.736 18.9521 43.093 42.3982 43.496 7.4033 12.265 20.601 19.958 34.8416 19.958 3.6379 0 7.213-.486 10.6806-1.45 8.9749 10.064 22.1606 15.934 36.2846 15.934 9.567 0 18.834-2.736 26.8-7.909 6.473-4.203 11.688-9.752 15.297-16.229 25.224-.146 45.697-20.878 45.697-46.341 0-7.867-1.952-15.5011-5.68-22.3264 2.131-4.6453 3.233-9.7024 3.232-14.8204 0-9.2696-3.544-18.035-9.978-24.6806-5.074-5.2412-11.497-8.7034-18.486-10.0433-2.363-7.7331-6.887-14.7006-13.07-20.011-7.682-6.5936-17.44-10.21666-27.528-10.22128-4.703 0-9.422.80449-13.869 2.34597-8.638-6.32371-19.048-9.76399-29.767-9.76399zm0 7.31213c10.456 0 20.711 3.91527 28.565 10.82797 4.711-2.2461 9.858-3.4104 15.07-3.4091 17.358 0 31.934 12.7284 34.734 29.6185 14.994.3877 27.076 12.8107 27.076 28.0251-.005 5.331-1.514 10.5506-4.349 15.0499 4.401 6.4668 6.797 14.2035 6.797 22.0965 0 21.522-17.367 39.031-38.714 39.031-1.381 0-2.767-.076-4.146-.226-5.957 14.5-20.971 24.362-37.682 24.362-13.781 0-26.4101-6.517-33.8197-17.232-4.1497 1.811-8.6229 2.746-13.1445 2.748-13.1742 0-25.0899-7.965-30.5766-20.124-1.169.115-2.3451.173-3.5191.173-19.7905 0-35.89177-16.235-35.89177-36.191 0-13.2483 7.19127-25.3857 18.54757-31.6887-.0551-.7434-.0827-1.4887-.0829-2.2342 0-16.3678 13.0203-30.1192 30.6787-32.8731 6.4512-16.8226 22.4043-27.95387 40.4581-27.95387" fill="#f0f0f0"/></g></svg>