<svg xmlns="http://www.w3.org/2000/svg" fill="none" viewBox="0 0 212 180">
  <clipPath id="iqwiki_svg__a">
    <path d="M0 0h212v180H0z"/>
  </clipPath>
  <g clip-path="url(#iqwiki_svg__a)">
    <path fill="#ff5caa" d="M198.89 109.523c0 4.146-.753 8.111-2.13 11.767-4.714 12.487-16.691 21.357-30.727 21.357-14.364 0-26.57-9.292-31.039-22.24-26.536 1.923-41.71-10.035-48.02-32.827-15.937-4.37-27.652-19.062-27.652-36.516a37.87 37.87 0 0 1 12.68-28.355c6.616-5.906 15.319-9.489 24.852-9.489 10.922 0 20.757 4.702 27.607 12.218a29 29 0 0 1 16.028-4.8c4.127 0 8.061.862 11.626 2.414 10.314 4.489 17.567 14.77 17.728 26.78q.008.208.006.416l-.006.501v.006c1.5-.332 3.056-.507 4.658-.507 7.152 0 13.506 3.454 17.51 8.798h.007a22.16 22.16 0 0 1 4.423 13.33 22.07 22.07 0 0 1-5.121 14.191q-.374.46-.776.895c5.194 5.855 8.346 13.589 8.346 22.061"/>
    <g stroke="#103849" stroke-linejoin="round" stroke-miterlimit="10">
      <path stroke-linecap="round" stroke-width="4.482" d="M140.126 48.388a36.6 36.6 0 0 0-9.575 24.76c0 20.198 16.24 36.573 36.273 36.573a36 36 0 0 0 7.689-.823M95.27 36.582c.907 13.21 11.822 23.642 25.153 23.642m40.099-4.906a21.64 21.64 0 0 1 9.321-4.566m-45.381-25.318a29.54 29.54 0 0 0-10.03 11.148"/>
      <path stroke-width="3.921" d="M198.89 109.517c0 18.297-14.71 33.125-32.857 33.125-14.364 0-26.57-9.292-31.039-22.241-26.536 1.924-41.71-10.034-48.02-32.826-15.937-4.37-27.652-19.062-27.652-36.517 0-20.9 16.802-37.843 37.532-37.843 10.922 0 20.757 4.702 27.607 12.217a29 29 0 0 1 16.028-4.798c16.216 0 29.36 13.258 29.36 29.61l-.006.5v.005c1.5-.332 3.056-.506 4.658-.506 12.116 0 21.94 9.905 21.94 22.128a22.13 22.13 0 0 1-5.897 15.086c5.194 5.855 8.346 13.589 8.346 22.061z"/>
      <path stroke-linecap="round" stroke-width="4.482" d="M190.546 87.457s-2.547-2.665-6.031-5.44M92.571 147.53a30 30 0 0 1-2.721-9.619"/>
    </g>
    <path fill="#ff5caa" d="M156.992 124.493a30 30 0 0 1 1.751 10.13c0 17.764-15.463 32.157-34.542 32.157-14.147 0-26.303-7.914-31.636-19.248-4.395 3.01-9.667 4.765-15.33 4.765-12.695 0-23.407-8.809-26.765-20.857a30 30 0 0 1-7.33.905c-16.585 0-30.035-13.556-30.035-30.284 0-12.847 7.938-23.827 19.14-28.22a24.4 24.4 0 0 1-.675-5.703c0-15.17 13.98-27.466 31.229-27.466 9.902 0 18.737 4.06 24.455 10.383a32.5 32.5 0 0 1 15.509-3.903c17.477 0 31.646 13.662 31.646 30.514q.003.597-.028 1.192c14.421 2.666 25.382 16.02 25.382 32.096 0 4.831-.987 9.416-2.771 13.538"/>
    <g stroke="#103849" stroke-linejoin="round" stroke-miterlimit="10">
      <path stroke-linecap="round" stroke-width="4.482" d="M145.791 109.524c5.148 3.835 9.087 9.022 11.207 14.973m-106.521 6.946a29.8 29.8 0 0 1-1.094-8.038c0-11.385 6.354-21.233 15.581-25.941m-24.89-25.52a29.5 29.5 0 0 0-7.822 1.901m55.015-22.78-.006-.006m0 0a31.6 31.6 0 0 0-9.985 8.528"/>
      <path stroke-width="3.921" d="M157.008 124.495a30 30 0 0 1 1.751 10.13c0 17.764-15.464 32.157-34.543 32.157-14.146 0-26.302-7.914-31.635-19.248-4.395 3.01-9.668 4.764-15.33 4.764-12.696 0-23.407-8.808-26.765-20.856a30 30 0 0 1-7.33.905c-16.585 0-30.035-13.556-30.035-30.284 0-12.847 7.938-23.827 19.14-28.22a24.4 24.4 0 0 1-.675-5.703c0-15.17 13.98-27.466 31.228-27.466 9.902 0 18.738 4.06 24.456 10.383a32.5 32.5 0 0 1 15.509-3.903c17.477 0 31.646 13.663 31.646 30.514q.002.597-.028 1.192c14.421 2.666 25.382 16.02 25.382 32.096 0 4.831-.987 9.416-2.772 13.538z"/>
      <path stroke-linecap="round" stroke-width="4.482" d="M107.388 87.926c5.556-5.894 13.227-9.545 21.694-9.545q2.714.001 5.3.483m-1.987 38.315c-4.377 5.519-11.112 9.055-18.666 9.055-13.193 0-23.887-10.784-23.887-24.085a24.1 24.1 0 0 1 5.385-15.236"/>
      <path stroke-linecap="round" stroke-width="4.482" d="M124.299 138.158c0-4.73-1.183-9.179-3.27-13.066m-46.652-2.317c3.938-5.884 10.07-10.142 17.215-11.587m-59.801-9.102a25.6 25.6 0 0 1 9.506-1.828 25.5 25.5 0 0 1 14.61 4.58M80.9 79.919a18 18 0 0 1-5.126.741 18 18 0 0 1-12.65-5.182m96.173 3.267a14.36 14.36 0 0 1 8.658-2.89c.867-.001 1.732.076 2.585.231"/>
      <path stroke-width="7.843" d="M193.124 87.474a24.12 24.12 0 0 0 5.277-15.097c0-13.287-10.719-24.097-23.893-24.097q-1.383 0-2.751.16c-.932-16.574-14.598-29.77-31.262-29.77a30.97 30.97 0 0 0-15.709 4.257c-7.409-7.465-17.452-11.664-27.926-11.675-17.556 0-32.466 11.616-37.584 27.623-16.64 1.57-29.648 14.095-29.648 29.266 0 1.51.131 3.022.39 4.514-11.509 5.2-18.854 16.569-18.854 29.409 0 17.784 14.35 32.253 31.987 32.253 2.014 0 4.024-.189 6.003-.566 4.186 12.169 15.489 20.517 28.093 20.517a28.9 28.9 0 0 0 14.568-3.93c6.235 11.255 18.709 18.414 32.397 18.414 16.665 0 30.747-10.504 35.098-24.8 2.188.434 4.439.664 6.729.664 19.194 0 34.81-15.744 34.81-35.093 0-8.061-2.731-15.825-7.725-22.049z"/>
    </g>
    <path fill="#f0f0f0" d="M96.853 0C86.54 0 76.62 3.096 68.166 8.954a50.65 50.65 0 0 0-16.91 19.89C32.652 33.39 19.349 48.488 18.508 66.34 6.991 74.402 0 87.714 0 102.062c0 23.736 18.952 43.093 42.398 43.496C49.801 157.823 63 165.516 77.24 165.516c3.638 0 7.213-.486 10.68-1.45C96.895 174.13 110.081 180 124.205 180c9.567 0 18.834-2.736 26.8-7.909 6.473-4.203 11.688-9.752 15.297-16.229 25.224-.146 45.697-20.878 45.697-46.341 0-7.867-1.952-15.501-5.68-22.326a35.5 35.5 0 0 0 3.232-14.82c0-9.27-3.544-18.036-9.978-24.681-5.074-5.242-11.497-8.704-18.486-10.044a42.95 42.95 0 0 0-13.07-20.01 42.3 42.3 0 0 0-27.528-10.222 42.5 42.5 0 0 0-13.869 2.346C117.982 3.44 107.572 0 96.853 0m0 7.312c10.456 0 20.711 3.915 28.565 10.828a35 35 0 0 1 15.07-3.409c17.358 0 31.934 12.728 34.734 29.619 14.994.387 27.076 12.81 27.076 28.025a28.3 28.3 0 0 1-4.349 15.05 39.4 39.4 0 0 1 6.797 22.096c0 21.522-17.367 39.031-38.714 39.031-1.381 0-2.767-.076-4.146-.226-5.957 14.5-20.971 24.362-37.682 24.362-13.781 0-26.41-6.517-33.82-17.232a32.9 32.9 0 0 1-13.144 2.748c-13.174 0-25.09-7.965-30.577-20.124a36 36 0 0 1-3.519.173c-19.79 0-35.892-16.235-35.892-36.191 0-13.248 7.192-25.386 18.548-31.689a30 30 0 0 1-.083-2.234c0-16.368 13.02-30.12 30.679-32.873C62.846 18.443 78.8 7.312 96.854 7.312"/>
  </g>
</svg>
