<svg xmlns="http://www.w3.org/2000/svg" fill="none" viewBox="0 0 177 177">
  <path fill="#c3e4cd" fill-rule="evenodd" d="M108.914 71.903c4.401-3.672 9.311-5.07 14.02-4.716 5.023.377 9.671 2.731 13.143 6.151 3.471 3.42 5.856 7.995 6.238 12.932.385 4.982-1.283 10.2-5.681 14.779q-.603.633-1.233 1.249C115.453 121.948 88.955 122 88.684 122c-.136 0-26.718-.001-46.718-19.704l-.004-.005q-.62-.614-1.22-1.235l-.003-.004c-4.4-4.575-6.07-9.792-5.686-14.774.38-4.936 2.764-9.511 6.235-12.933 3.47-3.42 8.118-5.777 13.141-6.155 4.71-.355 9.62 1.04 14.023 4.71.474-5.66 2.94-10.066 6.521-13.094C78.793 55.576 83.77 54 88.683 54s9.891 1.575 13.71 4.806c3.581 3.029 6.048 7.435 6.521 13.097m-19.318 48.105v-.025h.001zm-1.826 0v-.025h.001zm15.9-27.286c-.546 0-.735.777-.387 1.188a4.15 4.15 0 0 1 .987 2.689c0 2.32-1.909 4.201-4.264 4.201s-4.265-1.881-4.265-4.201c0-.124-.164-.186-.239-.086a7.1 7.1 0 0 0-1.313 3.005c-.105.604-.603 1.105-1.23 1.105h-.345c-.818 0-1.492-.653-1.372-1.444.827-5.421 6.25-9.353 12.428-9.353 6.177 0 11.6 3.932 12.427 9.353.12.79-.554 1.444-1.371 1.444-.818 0-1.465-.657-1.643-1.437-.808-3.554-4.556-6.464-9.413-6.464M65.8 96.6c0-.164-.216-.252-.317-.122-.719.925-1.209 1.971-1.416 3.075-.123.651-.66 1.193-1.338 1.193h-.254c-.817 0-1.492-.653-1.371-1.444.827-5.424 6.25-9.353 12.427-9.353s11.6 3.93 12.427 9.353c.121.791-.553 1.444-1.37 1.444s-1.465-.656-1.643-1.437c-.808-3.555-4.556-6.463-9.414-6.463-.441 0-.603.61-.307.931a4.15 4.15 0 0 1 1.105 2.823c0 2.32-1.91 4.201-4.265 4.201S65.8 98.919 65.8 96.599m27.627 10.132c.578-.566 1.47-.841 2.188-.458.718.384.99 1.274.473 1.894-1.684 2.017-4.41 3.296-7.416 3.296-3.005 0-5.737-1.265-7.423-3.298-.515-.621-.24-1.511.48-1.892s1.61-.102 2.186.464c1.112 1.092 2.798 1.83 4.757 1.83 1.954 0 3.642-.746 4.755-1.836" clip-rule="evenodd"/>
</svg>
