<svg fill="none" height="177" viewBox="0 0 177 177" width="177" xmlns="http://www.w3.org/2000/svg"><path clip-rule="evenodd" d="m108.914 71.9026c4.401-3.6718 9.311-5.0688 14.02-4.7156 5.023.3767 9.671 2.7312 13.143 6.1511 3.471 3.4201 5.856 7.9947 6.238 12.9317.385 4.982-1.283 10.2-5.681 14.7792-.402.422-.813.838-1.233 1.249-19.948 19.65-46.4455 19.702-46.7166 19.702h-.0013c-.1355 0-26.7171-.001-46.7166-19.704l-.0043-.005c-.4129-.409-.8195-.821-1.22-1.235l-.0032-.004c-4.4-4.5753-6.0697-9.792-5.6857-14.774.3805-4.9362 2.7638-9.5113 6.2343-12.9326 3.4702-3.4211 8.118-5.7775 13.1419-6.1558 4.7086-.3546 9.6196 1.0407 14.0228 4.7107.4735-5.6605 2.9402-10.066 6.5209-13.0947 3.8189-3.2303 8.7956-4.8056 13.71-4.8056 4.9145 0 9.8911 1.5753 13.7098 4.8056 3.581 3.0291 6.048 7.4354 6.521 13.097zm-19.3176 48.1054-.0009-.025h.0016zm-1.8263 0-.0007-.025h.0016zm15.8999-27.2856c-.546 0-.735.7765-.387 1.1878.616.7285.987 1.6658.987 2.6884 0 2.3204-1.909 4.2014-4.264 4.2014-2.3555 0-4.2649-1.881-4.2649-4.2014 0-.1241-.1644-.1858-.2387-.0852-.6726.9101-1.1267 1.9318-1.3133 3.0046-.105.604-.6034 1.105-1.2297 1.105h-.3459c-.8174 0-1.4917-.6533-1.3711-1.4443.827-5.421 6.2501-9.3527 12.4276-9.3527 6.177 0 11.6 3.9317 12.427 9.3527.12.791-.554 1.4443-1.371 1.4443-.818 0-1.465-.6566-1.643-1.4373-.808-3.5533-4.556-6.4633-9.413-6.4633zm-37.8702 3.8762c0-.1637-.2154-.2516-.3168-.1213-.719.9243-1.2089 1.9711-1.4163 3.0743-.1224.6514-.6605 1.1934-1.3377 1.1934h-.2538c-.8174 0-1.4917-.653-1.3712-1.444.8266-5.4239 6.2503-9.3527 12.4273-9.3527 6.1769 0 11.6006 3.9288 12.4272 9.3527.1206.791-.5538 1.444-1.3712 1.444-.8173 0-1.4646-.656-1.6421-1.4369-.8081-3.5555-4.556-6.4634-9.4139-6.4634-.4416 0-.6032.6108-.3076.9317.6868.7458 1.1053 1.7359 1.1053 2.8222 0 2.3204-1.9093 4.2014-4.2646 4.2014s-4.2646-1.881-4.2646-4.2014zm27.6276 10.1324c.5777-.566 1.4705-.841 2.1878-.458.7173.384.9894 1.274.4725 1.894-1.6836 2.017-4.4095 3.296-7.4159 3.296-3.0048 0-5.7367-1.265-7.4225-3.298-.5151-.621-.2396-1.511.4791-1.892s1.6101-.102 2.187.464c1.1112 1.092 2.7975 1.83 4.7564 1.83 1.9538 0 3.6419-.746 4.7556-1.836z" fill="#c3e4cd" fill-rule="evenodd"/></svg>