<svg fill="none" height="500" viewBox="0 0 500 500" width="500" xmlns="http://www.w3.org/2000/svg" xmlns:xlink="http://www.w3.org/1999/xlink"><radialGradient id="a" cx="0" cy="0" gradientTransform="matrix(-198.37605988 -138.22955062 184.87014684 -265.310935 348.77 397.304)" gradientUnits="userSpaceOnUse" r="1"><stop offset="0" stop-color="#8afbed" stop-opacity="0"/><stop offset=".671495" stop-color="#00a3ff" stop-opacity=".45726"/><stop offset="1" stop-color="#198cf6"/></radialGradient><radialGradient id="b" cx="0" cy="0" gradientTransform="matrix(140.70246328 185.43987855 -150.86562624 114.46925765 217.316 212.912)" gradientUnits="userSpaceOnUse" r="1"><stop offset="0" stop-color="#35c2ff"/><stop offset="1" stop-color="#00a3ff" stop-opacity="0"/></radialGradient><radialGradient id="c" cx="0" cy="0" gradientTransform="matrix(51.95997466 87.43268772 -112.02047159 66.572137 124.199 222.987)" gradientUnits="userSpaceOnUse" r="1"><stop offset="0" stop-color="#3b52fc"/><stop offset="1" stop-color="#3b52fc" stop-opacity="0"/></radialGradient><radialGradient id="d" cx="0" cy="0" gradientTransform="matrix(-.49962951 151.38317551 -193.95494364 -.64013464 366.013 198.506)" gradientUnits="userSpaceOnUse" r="1"><stop offset="0" stop-color="#2a6bff"/><stop offset="1" stop-color="#2a6bff" stop-opacity="0"/></radialGradient><radialGradient id="e" cx="0" cy="0" gradientTransform="matrix(-106.38817852 43.6720217 -109.61049725 -267.01903635 249.89 162.648)" gradientUnits="userSpaceOnUse" r="1"><stop offset="0" stop-color="#00a3ff"/><stop offset=".943718" stop-color="#00a3ff" stop-opacity=".29"/></radialGradient><radialGradient id="f" cx="0" cy="0" gradientTransform="matrix(25.98009777 131.39924569 -243.0792359 48.06132852 208.634 87.0918)" gradientUnits="userSpaceOnUse" r="1"><stop offset="0" stop-color="#ff7272"/><stop offset=".179674" stop-color="#ff72a7"/><stop offset="1" stop-color="#7a51ff" stop-opacity="0"/></radialGradient><radialGradient id="g" cx="0" cy="0" gradientTransform="matrix(32.97448869 324.25065154 -133.54025554 13.58030161 239.61 71.6037)" gradientUnits="userSpaceOnUse" r="1"><stop offset="0" stop-color="#ffbfab"/><stop offset=".364808" stop-color="#ff67a8" stop-opacity=".87"/><stop offset=".723967" stop-color="#6bafff" stop-opacity="0"/></radialGradient><radialGradient id="h" cx="0" cy="0" gradientTransform="matrix(63.45120165 -76.44118536 115.93245836 96.23155055 250.102 230.482)" gradientUnits="userSpaceOnUse" r="1"><stop offset="0" stop-color="#2238ff"/><stop offset="1" stop-color="#0047ff" stop-opacity="0"/></radialGradient><linearGradient id="i" gradientUnits="userSpaceOnUse" x1="344.03" x2="282.577" y1="237.476" y2="209.498"><stop offset="0" stop-color="#29edfe"/><stop offset="1" stop-color="#29edfe" stop-opacity="0"/></linearGradient><radialGradient id="j" cx="0" cy="0" gradientTransform="matrix(54.64776384 -118.47380642 266.72815208 123.03223392 250.311 409.87)" gradientUnits="userSpaceOnUse" r="1"><stop offset="0" stop-color="#4deaff"/><stop offset=".943718" stop-color="#00a3ff" stop-opacity=".1"/></radialGradient><radialGradient id="k" cx="0" cy="0" gradientTransform="matrix(116.97322346 19.81702789 -18.96481551 111.94290159 234.052 318.082)" gradientUnits="userSpaceOnUse" r="1"><stop offset="0" stop-color="#35aaff"/><stop offset=".0001" stop-color="#0057ff"/><stop offset="1" stop-color="#00a3ff" stop-opacity="0"/></radialGradient><radialGradient id="l" cx="0" cy="0" gradientTransform="matrix(-71.44526932 99.42295134 -52.47894041 -37.71133305 359.018 222.987)" gradientUnits="userSpaceOnUse" r="1"><stop offset="0" stop-color="#2241ff"/><stop offset="1" stop-color="#1ea0ff" stop-opacity="0"/></radialGradient><radialGradient id="m" cx="0" cy="0" gradientTransform="matrix(-55.58550051 -117.05224702 268.48034881 -127.49532748 249.89 410.179)" gradientUnits="userSpaceOnUse" r="1"><stop offset="0" stop-color="#64e3ff"/><stop offset="1" stop-color="#00a3ff" stop-opacity=".29"/></radialGradient><radialGradient id="n" cx="0" cy="0" gradientTransform="matrix(79.83321209 97.55136679 -94.57268138 77.39554226 149.18 269.954)" gradientUnits="userSpaceOnUse" r="1"><stop offset="0" stop-color="#3687ff"/><stop offset="1" stop-color="#354bff" stop-opacity="0"/></radialGradient><radialGradient id="o" cx="0" cy="0" gradientTransform="matrix(54.95776024 57.45577998 -31.221509 29.86408341 139.187 237.476)" gradientUnits="userSpaceOnUse" r="1"><stop offset="0" stop-color="#1858ff"/><stop offset="1" stop-color="#3a70ff" stop-opacity="0"/></radialGradient><path d="m250.102 436.323c73.398 0 132.898-59.151 132.898-132.118 0-28.001-8.762-53.967-23.709-75.337l-110.079 65.878-110.078-63.268c-13.861 20.859-21.93 45.856-21.93 72.727 0 72.967 59.501 132.118 132.898 132.118z" fill="url(#a)"/><path d="m250.102 436.323c73.398 0 132.898-59.151 132.898-132.118 0-28.001-8.762-53.967-23.709-75.337l-110.079 65.878-110.078-63.268c-13.861 20.859-21.93 45.856-21.93 72.727 0 72.967 59.501 132.118 132.898 132.118z" fill="url(#b)" fill-opacity=".5"/><path d="m250.102 436.323c73.398 0 132.898-59.151 132.898-132.118 0-28.001-8.762-53.967-23.709-75.337l-110.079 65.878-110.078-63.268c-13.861 20.859-21.93 45.856-21.93 72.727 0 72.967 59.501 132.118 132.898 132.118z" fill="url(#c)"/><path d="m250.102 436.323c73.398 0 132.898-59.151 132.898-132.118 0-28.001-8.762-53.967-23.709-75.337l-110.079 65.878-110.078-63.268c-13.861 20.859-21.93 45.856-21.93 72.727 0 72.967 59.501 132.118 132.898 132.118z" fill="url(#d)"/><path d="m156.512 207.737 93.59 53.499v-196.6269z" fill="url(#e)"/><path d="m156.512 207.737 93.59 53.499v-196.6269z" fill="url(#f)"/><path d="m343.536 207.737-93.434 53.499v-196.6269z" fill="url(#g)"/><path d="m343.536 207.737-93.434 53.499v-196.6269z" fill="url(#h)"/><path d="m343.536 207.737-93.434 53.499v-196.6269z" fill="url(#i)" fill-opacity=".6"/><path d="m359.291 228.842-109.189 65.749v141.112z" fill="url(#j)"/><path d="m359.291 228.842-109.189 65.749v141.112z" fill="url(#k)"/><path d="m359.291 228.842-109.189 65.749v141.112z" fill="url(#l)"/><path d="m139.042 231.323 111.06 63.268v141.112z" fill="url(#m)"/><path d="m139.042 231.323 111.06 63.268v141.112z" fill="url(#n)"/><path d="m139.042 231.323 111.06 63.268v141.112z" fill="url(#o)"/></svg>