<svg xmlns="http://www.w3.org/2000/svg" width="500" height="500" fill="none">
  <radialGradient id="lido_svg__a" cx="0" cy="0" r="1" gradientTransform="matrix(-198.37606 -138.22955 184.87015 -265.31093 348.77 397.304)" gradientUnits="userSpaceOnUse">
    <stop offset="0" stop-color="#8afbed" stop-opacity="0"/>
    <stop offset=".671" stop-color="#00a3ff" stop-opacity=".457"/>
    <stop offset="1" stop-color="#198cf6"/>
  </radialGradient>
  <radialGradient id="lido_svg__b" cx="0" cy="0" r="1" gradientTransform="matrix(140.70246 185.43988 -150.86563 114.46926 217.316 212.912)" gradientUnits="userSpaceOnUse">
    <stop offset="0" stop-color="#35c2ff"/>
    <stop offset="1" stop-color="#00a3ff" stop-opacity="0"/>
  </radialGradient>
  <radialGradient id="lido_svg__c" cx="0" cy="0" r="1" gradientTransform="matrix(51.95997 87.43269 -112.02047 66.57214 124.199 222.987)" gradientUnits="userSpaceOnUse">
    <stop offset="0" stop-color="#3b52fc"/>
    <stop offset="1" stop-color="#3b52fc" stop-opacity="0"/>
  </radialGradient>
  <radialGradient id="lido_svg__d" cx="0" cy="0" r="1" gradientTransform="matrix(-.49963 151.38318 -193.95494 -.64013 366.013 198.506)" gradientUnits="userSpaceOnUse">
    <stop offset="0" stop-color="#2a6bff"/>
    <stop offset="1" stop-color="#2a6bff" stop-opacity="0"/>
  </radialGradient>
  <radialGradient id="lido_svg__e" cx="0" cy="0" r="1" gradientTransform="matrix(-106.38818 43.67202 -109.6105 -267.01904 249.89 162.648)" gradientUnits="userSpaceOnUse">
    <stop offset="0" stop-color="#00a3ff"/>
    <stop offset=".944" stop-color="#00a3ff" stop-opacity=".29"/>
  </radialGradient>
  <radialGradient id="lido_svg__f" cx="0" cy="0" r="1" gradientTransform="matrix(25.9801 131.39925 -243.07924 48.06133 208.634 87.092)" gradientUnits="userSpaceOnUse">
    <stop offset="0" stop-color="#ff7272"/>
    <stop offset=".18" stop-color="#ff72a7"/>
    <stop offset="1" stop-color="#7a51ff" stop-opacity="0"/>
  </radialGradient>
  <radialGradient id="lido_svg__g" cx="0" cy="0" r="1" gradientTransform="matrix(32.97449 324.25065 -133.54026 13.5803 239.61 71.604)" gradientUnits="userSpaceOnUse">
    <stop offset="0" stop-color="#ffbfab"/>
    <stop offset=".365" stop-color="#ff67a8" stop-opacity=".87"/>
    <stop offset=".724" stop-color="#6bafff" stop-opacity="0"/>
  </radialGradient>
  <radialGradient id="lido_svg__h" cx="0" cy="0" r="1" gradientTransform="matrix(63.4512 -76.44119 115.93246 96.23155 250.102 230.482)" gradientUnits="userSpaceOnUse">
    <stop offset="0" stop-color="#2238ff"/>
    <stop offset="1" stop-color="#0047ff" stop-opacity="0"/>
  </radialGradient>
  <linearGradient id="lido_svg__i" x1="344.03" x2="282.577" y1="237.476" y2="209.498" gradientUnits="userSpaceOnUse">
    <stop offset="0" stop-color="#29edfe"/>
    <stop offset="1" stop-color="#29edfe" stop-opacity="0"/>
  </linearGradient>
  <radialGradient id="lido_svg__j" cx="0" cy="0" r="1" gradientTransform="matrix(54.64776 -118.4738 266.72815 123.03223 250.311 409.87)" gradientUnits="userSpaceOnUse">
    <stop offset="0" stop-color="#4deaff"/>
    <stop offset=".944" stop-color="#00a3ff" stop-opacity=".1"/>
  </radialGradient>
  <radialGradient id="lido_svg__k" cx="0" cy="0" r="1" gradientTransform="matrix(116.97322 19.81703 -18.96482 111.9429 234.052 318.082)" gradientUnits="userSpaceOnUse">
    <stop offset="0" stop-color="#35aaff"/>
    <stop offset="0" stop-color="#0057ff"/>
    <stop offset="1" stop-color="#00a3ff" stop-opacity="0"/>
  </radialGradient>
  <radialGradient id="lido_svg__l" cx="0" cy="0" r="1" gradientTransform="matrix(-71.44527 99.42295 -52.47894 -37.71133 359.018 222.987)" gradientUnits="userSpaceOnUse">
    <stop offset="0" stop-color="#2241ff"/>
    <stop offset="1" stop-color="#1ea0ff" stop-opacity="0"/>
  </radialGradient>
  <radialGradient id="lido_svg__m" cx="0" cy="0" r="1" gradientTransform="matrix(-55.5855 -117.05225 268.48035 -127.49533 249.89 410.179)" gradientUnits="userSpaceOnUse">
    <stop offset="0" stop-color="#64e3ff"/>
    <stop offset="1" stop-color="#00a3ff" stop-opacity=".29"/>
  </radialGradient>
  <radialGradient id="lido_svg__n" cx="0" cy="0" r="1" gradientTransform="matrix(79.83321 97.55137 -94.57268 77.39554 149.18 269.954)" gradientUnits="userSpaceOnUse">
    <stop offset="0" stop-color="#3687ff"/>
    <stop offset="1" stop-color="#354bff" stop-opacity="0"/>
  </radialGradient>
  <radialGradient id="lido_svg__o" cx="0" cy="0" r="1" gradientTransform="matrix(54.95776 57.45578 -31.2215 29.86408 139.187 237.476)" gradientUnits="userSpaceOnUse">
    <stop offset="0" stop-color="#1858ff"/>
    <stop offset="1" stop-color="#3a70ff" stop-opacity="0"/>
  </radialGradient>
  <path fill="url(#lido_svg__a)" d="M250.102 436.323C323.5 436.323 383 377.172 383 304.205c0-28.001-8.762-53.967-23.709-75.337l-110.079 65.878-110.078-63.268c-13.861 20.859-21.93 45.856-21.93 72.727 0 72.967 59.501 132.118 132.898 132.118"/>
  <path fill="url(#lido_svg__b)" fill-opacity=".5" d="M250.102 436.323C323.5 436.323 383 377.172 383 304.205c0-28.001-8.762-53.967-23.709-75.337l-110.079 65.878-110.078-63.268c-13.861 20.859-21.93 45.856-21.93 72.727 0 72.967 59.501 132.118 132.898 132.118"/>
  <path fill="url(#lido_svg__c)" d="M250.102 436.323C323.5 436.323 383 377.172 383 304.205c0-28.001-8.762-53.967-23.709-75.337l-110.079 65.878-110.078-63.268c-13.861 20.859-21.93 45.856-21.93 72.727 0 72.967 59.501 132.118 132.898 132.118"/>
  <path fill="url(#lido_svg__d)" d="M250.102 436.323C323.5 436.323 383 377.172 383 304.205c0-28.001-8.762-53.967-23.709-75.337l-110.079 65.878-110.078-63.268c-13.861 20.859-21.93 45.856-21.93 72.727 0 72.967 59.501 132.118 132.898 132.118"/>
  <path fill="url(#lido_svg__e)" d="m156.512 207.737 93.59 53.499V64.609z"/>
  <path fill="url(#lido_svg__f)" d="m156.512 207.737 93.59 53.499V64.609z"/>
  <path fill="url(#lido_svg__g)" d="m343.536 207.737-93.434 53.499V64.609z"/>
  <path fill="url(#lido_svg__h)" d="m343.536 207.737-93.434 53.499V64.609z"/>
  <path fill="url(#lido_svg__i)" fill-opacity=".6" d="m343.536 207.737-93.434 53.499V64.609z"/>
  <path fill="url(#lido_svg__j)" d="m359.291 228.842-109.189 65.749v141.112z"/>
  <path fill="url(#lido_svg__k)" d="m359.291 228.842-109.189 65.749v141.112z"/>
  <path fill="url(#lido_svg__l)" d="m359.291 228.842-109.189 65.749v141.112z"/>
  <path fill="url(#lido_svg__m)" d="m139.042 231.323 111.06 63.268v141.112z"/>
  <path fill="url(#lido_svg__n)" d="m139.042 231.323 111.06 63.268v141.112z"/>
  <path fill="url(#lido_svg__o)" d="m139.042 231.323 111.06 63.268v141.112z"/>
</svg>
