<svg viewBox="0 0 96 96" xmlns="http://www.w3.org/2000/svg"><circle cx="48" cy="48" r="48"/><path d="m30.434 34.91c9.702-9.646 25.43-9.646 35.132 0l8.38 8.333-8.38 8.333c-9.702 9.646-25.43 9.646-35.132 0l-8.38-8.333z"/><path d="m16 43.257 19.027-19.04h25.946l19.027 19.04-32 31.987zm46.703-6.932c-8.085-8.12-21.321-8.12-29.406 0l-6.919 6.919 6.92 6.919c8.084 8.12 21.32 8.12 29.405 0l6.918-6.92z" fill="#0ce466"/><path d="m48 49.298a6.054 6.054 0 1 1 0-12.108 6.054 6.054 0 0 1 0 12.108"/><path d="m38.054 43.243c0 5.495 4.455 9.946 9.946 9.946s9.946-4.451 9.946-9.946-4.456-9.946-9.946-9.946-9.946 4.45-9.946 9.946m5.622 0a4.324 4.324 0 1 0 8.648 0 4.324 4.324 0 0 0 -8.648 0" fill="#fff" fill-rule="evenodd"/></svg>