<svg xmlns="http://www.w3.org/2000/svg" viewBox="0 12.32 96 76.54">
  <path d="M21.651 28.366c14.552-14.47 38.146-14.47 52.697 0l12.57 12.499-12.57 12.499c-14.552 14.47-38.146 14.47-52.698 0L9.081 40.865z"/>
  <path fill="#0ce466" fill-rule="evenodd" d="m0 40.885 28.541-28.56H67.46L96 40.885l-48 47.98zm70.054-10.398c-12.127-12.18-31.982-12.18-44.108 0L15.568 40.865l10.378 10.378c12.127 12.18 31.981 12.18 44.108 0l10.378-10.378z"/>
  <path d="M48 49.946a9.081 9.081 0 1 1 0-18.163 9.081 9.081 0 0 1 0 18.163"/>
  <path fill="#fff" fill-rule="evenodd" d="M33.081 40.865c0 8.243 6.683 14.919 14.919 14.919s14.919-6.676 14.919-14.919S56.236 25.946 48 25.946s-14.919 6.676-14.919 14.919m8.432 0A6.49 6.49 0 0 0 48 47.352a6.49 6.49 0 0 0 6.486-6.486A6.49 6.49 0 0 0 48 34.379a6.49 6.49 0 0 0-6.486 6.486z"/>
</svg>
