<svg xmlns="http://www.w3.org/2000/svg" viewBox="0 0 404 420.2"><style>.metamask-alt_svg__mmw0{fill:#e4761b;stroke:#e4761b}.metamask-alt_svg__mmw1{fill:#f6851b;stroke:#f6851b}.metamask-alt_svg__mmw2{fill:#763d16;stroke:#763d16}.metamask-alt_svg__mmw3{fill:#e2761b;stroke:#e2761b}.metamask-alt_svg__mmw4{fill:#c0ad9e;stroke:#c0ad9e}.metamask-alt_svg__mmw5{fill:#cd6116;stroke:#cd6116}.metamask-alt_svg__mmw6{fill:#e4751f;stroke:#e4751f}.metamask-alt_svg__mmw7{fill:#233447;stroke:#233447}.metamask-alt_svg__mmw8{fill:#d7c1b3;stroke:#d7c1b3}.metamask-alt_svg__mmw9{fill:#161616;stroke:#161616}</style><path d="m382.9 290.9-24.4 82.5-47.9-13.1z" class="metamask-alt_svg__mmw0"/><path d="m310.6 360.3 46.2-63.3 26.1-6.1z" class="metamask-alt_svg__mmw0"/><path d="m347 228.7 35.9 62.2-26.1 6.1zm0 0 23.1-16 12.8 78.2z" class="metamask-alt_svg__mmw1"/><path d="m317.6 181.7 66.4-27.2-3.3 14.9zm61 5.6-61-5.6 63.1-12.3z" class="metamask-alt_svg__mmw2"/><path d="m378.6 187.3-8.5 25.4-52.5-31zm13.3-26.5-11.2 8.6 3.3-14.9zm-13.3 26.5 2.1-17.9 8.9 7.4z" class="metamask-alt_svg__mmw2"/><path d="m259.1 340.2 16.6 5.3 34.9 14.8z" class="metamask-alt_svg__mmw3"/><path d="m370.1 212.7 8.5-25.4 7.3 5.6zm0 0L301.2 190l16.4-8.3z" class="metamask-alt_svg__mmw2"/><path d="m334 103.8-16.4 77.9-16.4 8.3z" class="metamask-alt_svg__mmw2"/><path d="m384 154.5-66.4 27.2 16.4-77.9z" class="metamask-alt_svg__mmw2"/><path d="m334 103.8 69.3-8-19.3 58.7z" class="metamask-alt_svg__mmw2"/><path d="m370.1 212.7-23.1 16-45.8-38.7z" class="metamask-alt_svg__mmw1"/><path d="m400.3 39.7 3 56.1-69.3 8z" class="metamask-alt_svg__mmw2"/><path d="M400.3 39.7 261.8 140.4 260 72.1z" class="metamask-alt_svg__mmw3"/><path d="m157 63.9 103 8.2 1.8 68.3z" class="metamask-alt_svg__mmw1"/><path d="m301.2 190-39.4-49.6 72.2-36.6z" class="metamask-alt_svg__mmw2"/><path d="m301.2 190 45.8 38.7-64.3 7.1z" class="metamask-alt_svg__mmw0"/><path d="m282.7 235.8-20.9-95.4 39.4 49.6z" class="metamask-alt_svg__mmw0"/><path d="m334 103.8-72.2 36.6L400.3 39.7z" class="metamask-alt_svg__mmw2"/><path d="m157.9 358.7 32.7 34.1-44.5-40.5z" class="metamask-alt_svg__mmw4"/><path d="m310.6 360.3 15.5-58.9 30.7-4.4z" class="metamask-alt_svg__mmw5"/><path d="m25.3 194.6 56.6-59.5-49.3 52.4z" class="metamask-alt_svg__mmw3"/><path d="m356.8 297-30.7 4.4 20.9-72.7zm-95-156.6-55.1-1.8L157 63.9z" class="metamask-alt_svg__mmw1"/><path d="m347 228.7-20.9 72.7-1.7-35.5z" class="metamask-alt_svg__mmw6"/><path d="m282.7 235.8 64.3-7.1-22.6 37.2z" class="metamask-alt_svg__mmw5"/><path d="m206.7 138.6 55.1 1.8 20.9 95.4z" class="metamask-alt_svg__mmw1"/><path d="M206.7 138.6 58 1l99 62.9zm-49.8 241-129.2 40-25.8-98.5z" class="metamask-alt_svg__mmw0"/><path d="m44.5 219.2 48.8-38.3 40.9 9.5z" class="metamask-alt_svg__mmw2"/><path d="m134.2 190.4-40.9-9.5 21.9-90.4z" class="metamask-alt_svg__mmw2"/><path d="m32.6 187.5 60.7-6.6-48.8 38.3z" class="metamask-alt_svg__mmw2"/><path d="m324.4 265.9-25.2-12.7-16.5-17.4z" class="metamask-alt_svg__mmw5"/><path d="m32.6 187.5-4.3-22.7 65 16.1z" class="metamask-alt_svg__mmw2"/><path d="m294 281.8 5.2-28.6 25.2 12.7z" class="metamask-alt_svg__mmw7"/><path d="M326.1 301.4 294 281.8l30.4-15.9z" class="metamask-alt_svg__mmw1"/><path d="m93.3 180.9-65-16.1-5.3-19.1zm21.9-90.4-21.9 90.4L23 145.7zm0 0 91.5 48.1-72.5 51.8z" class="metamask-alt_svg__mmw2"/><path d="m134.2 190.4 72.5-51.8 32.3 98.7zM239 237.3l-100.2-2.1-4.6-44.8z" class="metamask-alt_svg__mmw0"/><path d="m44.5 219.2 89.7-28.8 4.6 44.8zm238.2 16.6-43.7 1.5-32.3-98.7z" class="metamask-alt_svg__mmw1"/><path d="m299.2 253.2-5.2 28.6-11.3-46z" class="metamask-alt_svg__mmw5"/><path d="m58 1 148.7 137.6-91.5-48.1z" class="metamask-alt_svg__mmw2"/><path d="m1.9 321.1 125.4-5.2 29.6 63.7z" class="metamask-alt_svg__mmw0"/><path d="m156.9 379.6-29.6-63.7 61.6-3z" class="metamask-alt_svg__mmw5"/><path d="m294 281.8 32.1 19.6 17.7 41.7zm-155.2-46.6L1.9 321.1l42.6-101.9zm-11.5 80.7L1.9 321.1l136.9-85.9zm155.4-80.1 8.2 29.8-39.6 2.3zm-31.4 32.1L239 237.3l43.7-1.5z" class="metamask-alt_svg__mmw1"/><path d="m190.6 392.8-33.7-13.2 117.2 19.7z" class="metamask-alt_svg__mmw4"/><path d="m44.5 219.2-19.2-24.6 7.3-7.1z" class="metamask-alt_svg__mmw2"/><path d="m287.4 384.7-13.3 14.6-117.2-19.7z" class="metamask-alt_svg__mmw8"/><path d="m293.7 348.9-136.8 30.7 32-66.7z" class="metamask-alt_svg__mmw0"/><path d="m156.9 379.6 136.8-30.7-6.3 35.8z" class="metamask-alt_svg__mmw8"/><path d="m23 145.7-4.5-76.9 96.7 21.7zm9.6 41.8L19.3 174l9-9.2z" class="metamask-alt_svg__mmw2"/><path d="m216.6 257.1 22.4-19.8-3.2 48.4z" class="metamask-alt_svg__mmw5"/><path d="m239 237.3-22.4 19.8L184 274z" class="metamask-alt_svg__mmw5"/><path d="m343.8 343.1-6.1-4.5-43.7-56.8z" class="metamask-alt_svg__mmw1"/><path d="m184 274-45.2-38.8 100.2 2.1z" class="metamask-alt_svg__mmw5"/><path d="m235.8 285.7 3.2-48.4 12.3 30.6z" class="metamask-alt_svg__mmw6"/><path d="m14.9 153.3 8.1-7.6 5.3 19.1z" class="metamask-alt_svg__mmw2"/><path d="M235.8 285.7 184 274l32.6-16.9z" class="metamask-alt_svg__mmw7"/><path d="M115.2 90.5 18.5 68.8 58 1z" class="metamask-alt_svg__mmw2"/><path d="m274.1 399.3 5.5 15-89-21.5z" class="metamask-alt_svg__mmw4"/><path d="M188.9 312.9 184 274l51.8 11.7z" class="metamask-alt_svg__mmw1"/><path d="M138.8 235.2 184 274l4.9 38.9z" class="metamask-alt_svg__mmw6"/><path d="m251.3 267.9 39.6-2.3 46.8 73zm-112.5-32.7 50.1 77.7-61.6 3z" class="metamask-alt_svg__mmw1"/><path d="m251.3 267.9 49.2 74.9-64.7-57.1z" class="metamask-alt_svg__mmw6"/><path d="m235.8 285.7 64.7 57.1-6.8 6.1z" class="metamask-alt_svg__mmw1"/><path d="m293.7 348.9-104.8-36 46.9-27.2zm44-10.3-37.2 4.2-49.2-74.9z" class="metamask-alt_svg__mmw1"/><path d="m347.5 373.8-16 32.1-51.9 8.4zm-67.9 40.5-5.5-15 13.3-14.6z" class="metamask-alt_svg__mmw4"/><path d="m287.4 384.7 9.8-3.9-17.6 33.5zm-7.8 29.6 17.6-33.5 50.3-7z" class="metamask-alt_svg__mmw4"/><path d="m337.7 338.6 12.3 7.5-37.4 4.5z" class="metamask-alt_svg__mmw9"/><path d="m312.6 350.6-12.1-7.8 37.2-4.2zm-4.3 5.9 45.5-5.5-6.3 22.8z" class="metamask-alt_svg__mmw9"/><path d="m347.5 373.8-50.3 7 11.1-24.3zm-50.3 7-9.8 3.9 6.3-35.8zm-3.5-31.9 6.8-6.1 12.1 7.8zm56.3-2.8 3.8 4.9-45.5 5.5z" class="metamask-alt_svg__mmw9"/><path d="m308.3 356.5 4.3-5.9 37.4-4.5zm-14.6-7.6 14.6 7.6-11.1 24.3z" class="metamask-alt_svg__mmw9"/><path d="m312.6 350.6-4.3 5.9-14.6-7.6z" class="metamask-alt_svg__mmw9"/></svg>