<svg xmlns="http://www.w3.org/2000/svg" data-name="Layer 1" viewBox="0 0 639 639"><path d="M457.61 144c-13 0-25.07 6.74-31.88 17.82l-73.37 108.93a7.8 7.8 0 0 0 2.17 10.82 7.8 7.8 0 0 0 9.41-.58l72.22-62.64c1.2-1.08 3.05-.97 4.13.23.49.55.75 1.26.75 1.99v196.12a2.92 2.92 0 0 1-2.93 2.92c-.87 0-1.69-.38-2.24-1.05L217.56 157.24A37.46 37.46 0 0 0 189.02 144h-7.63c-20.65 0-37.39 16.74-37.39 37.39v276.22c0 20.65 16.74 37.39 37.39 37.39 13 0 25.07-6.74 31.88-17.82l73.37-108.93a7.8 7.8 0 0 0-2.17-10.82 7.8 7.8 0 0 0-9.41.58l-72.22 62.64c-1.2 1.08-3.05.97-4.13-.23-.49-.55-.75-1.26-.74-1.99V222.26a2.92 2.92 0 0 1 2.93-2.92c.86 0 1.69.38 2.24 1.05l218.28 261.37A37.46 37.46 0 0 0 449.96 495h7.63c20.65.01 37.4-16.72 37.42-37.37V181.39c0-20.65-16.74-37.39-37.39-37.39Z"/></svg>