<svg fill="none" height="512" viewBox="0 0 512 512" width="512" xmlns="http://www.w3.org/2000/svg"><path d="m0 0h512v512h-512z" fill="#000"/><g fill="#fff"><path d="m260.572 94c-2.867 0-5.195 2.3211-5.195 5.1787v152.7663c0 2.858 2.328 5.179 5.195 5.179h153.233c2.867 0 5.195-2.321 5.195-5.179v-152.7663c0-2.8576-2.328-5.1787-5.195-5.1787z"/><path d="m180.006 337.438c-2.866 0-5.195-2.321-5.195-5.179v-233.0803c0-2.8576-2.328-5.1787-5.194-5.1787h-71.4224c-2.8664 0-5.1946 2.3211-5.1946 5.1787v234.3283c0 2.858 2.3282 5.179 5.1946 5.179h70.1704c2.867 0 5.195 2.321 5.195 5.179v69.956c0 2.858 2.328 5.179 5.194 5.179h235.046c2.866 0 5.194-2.321 5.194-5.179v-71.204c0-2.858-2.328-5.179-5.194-5.179z"/></g></svg>