<svg xmlns="http://www.w3.org/2000/svg" fill="currentColor" viewBox="18.9 18 55.48 49.93">
  <path d="m22.201 46.512.194-.305 11.706-18.313a.4.4 0 0 1 .703.051c1.956 4.383 3.643 9.834 2.853 13.227-.337 1.396-1.262 3.287-2.303 5.035a9 9 0 0 1-.439.744.4.4 0 0 1-.333.176H22.543a.4.4 0 0 1-.342-.615m52.179 3.403v2.899a.42.42 0 0 1-.25.379c-.906.388-4.008 1.812-5.298 3.606-3.292 4.582-5.807 11.133-11.429 11.133H33.949c-8.313 0-15.049-6.759-15.049-15.1v-.268c0-.222.18-.402.402-.402h13.075c.259 0 .448.24.425.495-.093.851.065 1.72.467 2.511a4.6 4.6 0 0 0 4.124 2.561h6.473v-5.053h-6.399a.412.412 0 0 1-.333-.647c.069-.106.148-.217.231-.342.606-.86 1.47-2.196 2.33-3.717.587-1.026 1.156-2.122 1.614-3.222.093-.199.166-.402.24-.601.125-.351.254-.68.347-1.008.093-.277.166-.569.24-.841.217-.934.31-1.923.31-2.95 0-.402-.018-.823-.055-1.225-.018-.439-.074-.878-.129-1.318a14 14 0 0 0-.18-1.174 20 20 0 0 0-.37-1.757l-.051-.222c-.111-.402-.203-.786-.333-1.188a45 45 0 0 0-1.23-3.643 24 24 0 0 0-.532-1.336c-.273-.661-.55-1.262-.804-1.831a27 27 0 0 1-.351-.735 26 26 0 0 0-.384-.805c-.092-.199-.199-.384-.273-.569l-.791-1.461a.26.26 0 0 1 .291-.375l4.947 1.341h.014l.67.185.717.203.264.074v-2.94c0-1.419 1.137-2.571 2.543-2.571a2.5 2.5 0 0 1 1.798.754c.458.467.744 1.105.744 1.817v4.364l.527.148a.4.4 0 0 1 .12.06l.55.416c.185.148.384.328.624.513.476.384 1.045.879 1.669 1.447.166.143.328.291.476.439a38 38 0 0 1 2.566 2.598 34 34 0 0 1 .717.841c.24.296.495.587.717.878.291.388.606.791.878 1.211l.402.601c.351.532.661 1.082.957 1.632.125.254.254.532.365.804a12 12 0 0 1 .754 2.233c.051.162.088.337.106.495v.037c.056.222.074.458.093.698a7.5 7.5 0 0 1-.13 2.307 8 8 0 0 1-.273.966c-.111.314-.222.643-.365.952a13 13 0 0 1-.994 1.886c-.125.222-.273.458-.421.68l-.476.675a14 14 0 0 1-.643.828 9 9 0 0 1-.624.786c-.31.365-.606.712-.915 1.045a10 10 0 0 1-.587.638c-.199.222-.402.421-.587.606a23 23 0 0 1-.786.749l-.509.467a.4.4 0 0 1-.273.102H48.95v5.053h4.956c1.11 0 2.164-.393 3.014-1.114.291-.254 1.563-1.355 3.065-3.014a.4.4 0 0 1 .19-.116l13.69-3.958a.404.404 0 0 1 .513.388z"/>
</svg>
