<svg xmlns="http://www.w3.org/2000/svg" fill="none" viewBox="0 0 512 512"><title>open-information-initiative</title><path fill="#000" d="M0 0h512v512H0z"/><g fill="#fff"><path d="M260.572 94c-2.867 0-5.195 2.321-5.195 5.179v152.766c0 2.858 2.328 5.179 5.195 5.179h153.233c2.867 0 5.195-2.321 5.195-5.179V99.179c0-2.858-2.328-5.179-5.195-5.179z"/><path d="M180.006 337.438c-2.866 0-5.195-2.321-5.195-5.179V99.179c0-2.858-2.328-5.179-5.194-5.179H98.195C95.328 94 93 96.321 93 99.179v234.328c0 2.858 2.328 5.179 5.195 5.179h70.17c2.867 0 5.195 2.321 5.195 5.179v69.956c0 2.858 2.328 5.179 5.194 5.179H413.8c2.866 0 5.194-2.321 5.194-5.179v-71.204c0-2.858-2.328-5.179-5.194-5.179z"/></g></svg>