<svg xmlns="http://www.w3.org/2000/svg" fill="none" viewBox="0 0 1267 1267">
  <rect width="1267" height="1267" fill="#FF3E00" rx="633.5"/>
  <path fill="#000" d="M1020.53 538.839h-3.1c-6.97 0-12.63-5.69-12.63-12.688v-27.298c0-4.62-3.74-8.38-8.336-8.38h-3.104c-6.964 0-12.626-5.69-12.626-12.688v-27.298c0-4.62-3.741-8.38-8.338-8.38h-3.094c-6.964 0-12.626-5.69-12.626-12.688v-3.12c0-4.62-3.741-8.379-8.338-8.379h-3.104c-6.964 0-12.626-5.691-12.626-12.689v-3.119c0-4.62-3.741-8.38-8.338-8.38h-3.104c-6.963 0-12.625-5.69-12.625-12.688v-3.111c0-4.62-3.741-8.379-8.338-8.379h-3.095c-6.964 0-12.626-5.691-12.626-12.689v-3.119c0-4.62-3.741-8.38-8.338-8.38h-27.162c-6.964 0-12.626-5.69-12.626-12.688v-3.12c0-4.62-3.741-8.38-8.338-8.38h-51.23c-6.963 0-12.625-5.69-12.625-12.688v-3.11c0-4.62-3.741-8.38-8.338-8.38h-75.298c-4.597 0-8.338 3.76-8.338 8.38v3.11c0 6.998-5.662 12.688-12.625 12.688h-51.231c-6.963 0-12.625-5.69-12.625-12.688v-3.11c0-4.62-3.741-8.38-8.338-8.38h-75.298c-4.597 0-8.338 3.76-8.338 8.38v3.11c0 6.998-5.662 12.688-12.625 12.688h-51.23c-4.597 0-8.338 3.76-8.338 8.38v3.12c0 6.998-5.662 12.688-12.626 12.688h-27.172c-4.596 0-8.338 3.76-8.338 8.38v3.119c0 6.998-5.661 12.689-12.625 12.689h-3.104c-4.597 0-8.338 3.759-8.338 8.379v3.111c0 6.998-5.662 12.688-12.626 12.688h-3.104c-4.597 0-8.338 3.76-8.338 8.38v3.119c0 6.998-5.662 12.689-12.625 12.689h-3.104c-4.597 0-8.338 3.759-8.338 8.379v3.12c0 6.998-5.662 12.688-12.626 12.688h-3.104c-4.597 0-8.338 3.76-8.338 8.38v27.298c0 6.998-5.662 12.688-12.625 12.688h-3.104c-4.597 0-8.338 3.76-8.338 8.38v27.298c0 6.998-5.662 12.688-12.626 12.688h-3.104c-4.597 0-8.338 3.76-8.338 8.38v172.414c0 4.62 3.741 8.38 8.338 8.38h3.104c6.964 0 12.626 5.69 12.626 12.688v27.298c0 4.62 3.741 8.38 8.338 8.38h3.104c6.963 0 12.625 5.69 12.625 12.688v27.298c0 4.62 3.741 8.38 8.338 8.38h3.104c6.964 0 12.626 5.69 12.626 12.688v3.12c0 4.619 3.741 8.379 8.338 8.379h3.104c6.963 0 12.625 5.69 12.625 12.689v3.11c0 4.62 3.741 8.38 8.338 8.38h3.104c6.964 0 12.626 5.69 12.626 12.688v3.12c0 4.619 3.741 8.379 8.338 8.379h3.104c6.964 0 12.625 5.69 12.625 12.689v3.119c0 4.62 3.742 8.38 8.338 8.38h27.172c6.964 0 12.626 5.69 12.626 12.688v3.111c0 4.619 3.741 8.379 8.338 8.379h51.23c6.963 0 12.625 5.69 12.625 12.689v3.119c0 4.62 3.741 8.38 8.338 8.38h75.298c4.597 0 8.338-3.76 8.338-8.38v-3.119c0-6.999 5.662-12.689 12.625-12.689h51.231c6.963 0 12.625 5.69 12.625 12.689v3.119c0 4.62 3.741 8.38 8.338 8.38h75.298c4.597 0 8.338-3.76 8.338-8.38v-3.119c0-6.999 5.662-12.689 12.625-12.689h51.23c4.597 0 8.338-3.76 8.338-8.379v-3.111c0-6.998 5.662-12.688 12.626-12.688h27.162c4.597 0 8.338-3.76 8.338-8.38v-3.119c0-6.999 5.662-12.689 12.626-12.689h3.095c4.597 0 8.338-3.76 8.338-8.379v-3.12c0-6.998 5.662-12.688 12.625-12.688h3.104c4.597 0 8.338-3.76 8.338-8.38v-3.11c0-6.999 5.662-12.689 12.626-12.689h3.104c4.597 0 8.338-3.76 8.338-8.379v-3.12c0-6.998 5.662-12.688 12.626-12.688h3.094c4.597 0 8.338-3.76 8.338-8.38v-27.298c0-6.998 5.662-12.688 12.626-12.688h3.104c4.596 0 8.336-3.76 8.336-8.38v-27.298c0-6.998 5.66-12.688 12.63-12.688h3.1c4.6 0 8.34-3.76 8.34-8.38V547.219c0-4.62-3.74-8.38-8.34-8.38M551.851 913.115c0 6.999-5.662 12.689-12.625 12.689h-75.298c-6.964 0-12.625-5.69-12.625-12.689v-3.119c0-4.62-3.742-8.38-8.339-8.38h-3.104c-6.963 0-12.625-5.69-12.625-12.688v-3.12c0-4.62-3.741-8.379-8.338-8.379h-3.104c-6.964 0-12.626-5.691-12.626-12.689v-3.11c0-4.62-3.741-8.38-8.338-8.38h-3.104c-6.963 0-12.625-5.69-12.625-12.688v-27.298c0-4.62-3.741-8.38-8.338-8.38h-3.104c-6.964 0-12.626-5.69-12.626-12.688V740.71c0-4.62-3.741-8.379-8.338-8.379h-3.104c-6.963 0-12.625-5.69-12.625-12.689V547.228c0-6.998 5.662-12.688 12.625-12.688h3.104c4.597 0 8.338-3.76 8.338-8.38v-51.486c0-6.998 5.662-12.688 12.626-12.688h3.104c4.597 0 8.338-3.76 8.338-8.38v-27.298c0-6.998 5.662-12.688 12.625-12.688h3.104c4.597 0 8.338-3.76 8.338-8.38v-3.119c0-6.998 5.662-12.689 12.626-12.689h3.104c4.597 0 8.338-3.759 8.338-8.379v-3.111c0-6.998 5.662-12.688 12.625-12.688h3.104c4.597 0 8.339-3.76 8.339-8.38v-3.119c0-6.998 5.661-12.689 12.625-12.689h75.298c6.963 0 12.625 5.691 12.625 12.689v3.119c0 6.999-5.662 12.689-12.625 12.689h-3.104c-4.597 0-8.338 3.76-8.338 8.379v3.111c0 6.998-5.662 12.688-12.626 12.688h-3.104c-4.597 0-8.338 3.76-8.338 8.38v3.119c0 6.999-5.662 12.689-12.626 12.689h-3.104c-4.596 0-8.338 3.76-8.338 8.379v3.12c0 6.998-5.662 12.688-12.625 12.688h-3.104c-4.597 0-8.338 3.76-8.338 8.38v27.298c0 6.998-5.662 12.688-12.626 12.688h-3.104c-4.597 0-8.338 3.76-8.338 8.38v27.298c0 6.998-5.662 12.688-12.625 12.688h-3.104c-4.597 0-8.338 3.76-8.338 8.38v172.414c0 4.62 3.741 8.38 8.338 8.38h3.104c6.963 0 12.625 5.69 12.625 12.688v27.298c0 4.62 3.741 8.38 8.338 8.38h3.104c6.964 0 12.626 5.69 12.626 12.688v27.298c0 4.62 3.741 8.38 8.338 8.38h3.104c6.963 0 12.625 5.69 12.625 12.688v3.12c0 4.62 3.742 8.379 8.338 8.379h3.104c6.964 0 12.626 5.691 12.626 12.689v3.11c0 4.62 3.741 8.38 8.338 8.38h3.104c6.964 0 12.626 5.69 12.626 12.688v3.12c0 4.62 3.741 8.379 8.338 8.379h3.104c6.963 0 12.625 5.691 12.625 12.689zm152.735-59.874c-4.597 0-8.339 3.76-8.339 8.38v3.11c0 6.998-5.661 12.688-12.625 12.688h-3.104c-4.597 0-8.338 3.76-8.338 8.38v3.12c0 6.998-5.662 12.688-12.626 12.688h-3.104c-4.597 0-8.338 3.76-8.338 8.38v3.119c0 6.998-5.662 12.689-12.625 12.689h-3.095c-6.964 0-12.626-5.691-12.626-12.689v-3.119c0-4.62-3.741-8.38-8.338-8.38h-3.104c-6.963 0-12.625-5.69-12.625-12.688v-3.12c0-4.62-3.741-8.38-8.338-8.38h-3.104c-6.964 0-12.626-5.69-12.626-12.688v-3.11c0-4.62-3.741-8.38-8.338-8.38h-3.104c-6.963 0-12.625-5.69-12.625-12.688v-27.298c0-4.62-3.741-8.38-8.338-8.38h-3.104c-6.964 0-12.626-5.69-12.626-12.688v-51.486c0-4.62-3.741-8.38-8.338-8.38h-3.104c-6.964 0-12.625-5.69-12.625-12.688V547.219c0-6.998 5.661-12.689 12.625-12.689h3.104c4.597 0 8.338-3.759 8.338-8.379v-51.486c0-6.998 5.662-12.688 12.626-12.688h3.104c4.597 0 8.338-3.76 8.338-8.38v-27.298c0-6.998 5.662-12.688 12.625-12.688h3.104c4.597 0 8.338-3.76 8.338-8.38v-3.119c0-6.999 5.662-12.689 12.626-12.689h3.104c4.597 0 8.338-3.76 8.338-8.379v-3.111c0-6.998 5.662-12.688 12.625-12.688h3.104c4.597 0 8.338-3.76 8.338-8.38v-3.119c0-6.999 5.662-12.689 12.626-12.689h3.095c6.963 0 12.625 5.69 12.625 12.689v3.119c0 4.62 3.741 8.38 8.338 8.38h3.104c6.964 0 12.626 5.69 12.626 12.688v3.111c0 4.619 3.741 8.379 8.338 8.379h3.104c6.964 0 12.625 5.69 12.625 12.689v3.119c0 4.62 3.742 8.38 8.339 8.38h3.094c6.964 0 12.626 5.69 12.626 12.688v27.298c0 4.62 3.741 8.38 8.338 8.38h3.104c6.964 0 12.625 5.69 12.625 12.688v51.486c0 4.62 3.742 8.379 8.339 8.379h3.104c6.963 0 12.625 5.691 12.625 12.689v172.414c0 6.998-5.662 12.688-12.625 12.688h-3.104c-4.597 0-8.339 3.76-8.339 8.38v51.486c0 6.998-5.661 12.688-12.625 12.688h-3.104c-4.597 0-8.338 3.76-8.338 8.38v27.298c0 6.998-5.662 12.688-12.626 12.688zm232.31-133.608c0 6.998-5.662 12.688-12.626 12.688h-3.104c-4.597 0-8.338 3.76-8.338 8.38v51.486c0 6.998-5.662 12.688-12.625 12.688h-3.095c-4.597 0-8.338 3.76-8.338 8.38v27.298c0 6.998-5.662 12.688-12.626 12.688h-3.104c-4.597 0-8.338 3.76-8.338 8.38v3.11c0 6.998-5.662 12.688-12.625 12.688h-3.104c-4.597 0-8.338 3.76-8.338 8.38v3.12c0 6.998-5.662 12.688-12.626 12.688h-3.095c-4.597 0-8.338 3.76-8.338 8.38v3.119c0 6.998-5.662 12.689-12.625 12.689h-75.298c-6.964 0-12.625-5.691-12.625-12.689v-3.119c0-6.999 5.661-12.689 12.625-12.689h3.104c4.597 0 8.338-3.76 8.338-8.379v-3.12c0-6.998 5.662-12.688 12.626-12.688h3.104c4.597 0 8.338-3.76 8.338-8.38v-3.11c0-6.999 5.662-12.689 12.625-12.689h3.104c4.597 0 8.338-3.76 8.338-8.379v-3.12c0-6.998 5.662-12.688 12.626-12.688h3.104c4.597 0 8.338-3.76 8.338-8.38v-27.298c0-6.998 5.662-12.688 12.625-12.688h3.095c4.597 0 8.338-3.76 8.338-8.38v-27.298c0-6.998 5.662-12.688 12.626-12.688h3.104c4.597 0 8.338-3.76 8.338-8.38V547.219c0-4.62-3.741-8.38-8.338-8.38h-3.104c-6.964 0-12.626-5.69-12.626-12.688v-27.298c0-4.62-3.741-8.38-8.338-8.38h-3.095c-6.963 0-12.625-5.69-12.625-12.688v-27.298c0-4.62-3.741-8.38-8.338-8.38h-3.104c-6.964 0-12.626-5.69-12.626-12.688v-3.12c0-4.62-3.741-8.379-8.338-8.379h-3.104c-6.963 0-12.625-5.691-12.625-12.689v-3.119c0-4.62-3.741-8.38-8.338-8.38h-3.104c-6.964 0-12.626-5.69-12.626-12.688v-3.111c0-4.62-3.741-8.379-8.338-8.379h-3.104c-6.964 0-12.625-5.691-12.625-12.689v-3.119c0-6.999 5.661-12.689 12.625-12.689h75.298c6.963 0 12.625 5.69 12.625 12.689v3.119c0 4.62 3.741 8.38 8.338 8.38h3.095c6.964 0 12.626 5.69 12.626 12.688v3.111c0 4.619 3.741 8.379 8.338 8.379h3.104c6.963 0 12.625 5.69 12.625 12.689v3.119c0 4.62 3.741 8.38 8.338 8.38h3.104c6.964 0 12.626 5.69 12.626 12.688v27.298c0 4.62 3.741 8.38 8.338 8.38h3.095c6.963 0 12.625 5.69 12.625 12.688v51.486c0 4.62 3.741 8.379 8.338 8.379h3.104c6.964 0 12.626 5.691 12.626 12.689z"/>
</svg>
