<svg xmlns="http://www.w3.org/2000/svg" xmlns:xlink="http://www.w3.org/1999/xlink" viewBox="0 0 120 120"><title>rainbow</title><path fill="url(#rainbow_svg__a)" d="M0 0h120v120H0z"/><path fill="url(#rainbow_svg__b)" d="M20 38h6c30.928 0 56 25.072 56 56v6h12a6 6 0 0 0 6-6c0-40.869-33.131-74-74-74a6 6 0 0 0-6 6z"/><path fill="url(#rainbow_svg__c)" d="M84 94h16a6 6 0 0 1-6 6H84z"/><path fill="url(#rainbow_svg__d)" d="M26 20v16h-6V26a6 6 0 0 1 6-6"/><path fill="url(#rainbow_svg__e)" d="M20 36h6c32.033 0 58 25.968 58 58v6H66v-6c0-22.091-17.909-40-40-40h-6z"/><path fill="url(#rainbow_svg__f)" d="M68 94h16v6H68z"/><path fill="url(#rainbow_svg__g)" d="M20 52V36h6v16z"/><path fill="url(#rainbow_svg__h)" d="M20 62a6 6 0 0 0 6 6c14.359 0 26 11.641 26 26a6 6 0 0 0 6 6h10v-6c0-23.196-18.804-42-42-42h-6z"/><path fill="url(#rainbow_svg__i)" d="M52 94h16v6H58a6 6 0 0 1-6-6"/><path fill="url(#rainbow_svg__j)" d="M26 68a6 6 0 0 1-6-6V52h6z"/><defs><linearGradient xlink:href="#rainbow_svg__k" id="rainbow_svg__a" x1="60" x2="60" y1="0" y2="120"><stop stop-color="#174299"/><stop offset="1" stop-color="#001e59"/></linearGradient><linearGradient xlink:href="#rainbow_svg__k" id="rainbow_svg__c" x1="83" x2="100" y1="97" y2="97"><stop stop-color="#ff4000"/><stop offset="1" stop-color="#8754c9"/></linearGradient><linearGradient xlink:href="#rainbow_svg__k" id="rainbow_svg__d" x1="23" x2="23" y1="20" y2="37"><stop stop-color="#8754c9"/><stop offset="1" stop-color="#ff4000"/></linearGradient><linearGradient xlink:href="#rainbow_svg__k" id="rainbow_svg__f" x1="68" x2="84" y1="97" y2="97"><stop stop-color="#fff700"/><stop offset="1" stop-color="#ff9901"/></linearGradient><linearGradient xlink:href="#rainbow_svg__k" id="rainbow_svg__g" x1="23" x2="23" y1="52" y2="36"><stop stop-color="#fff700"/><stop offset="1" stop-color="#ff9901"/></linearGradient><linearGradient id="rainbow_svg__k" gradientUnits="userSpaceOnUse"/><radialGradient xlink:href="#rainbow_svg__k" id="rainbow_svg__b" cx="0" cy="0" r="1" gradientTransform="matrix(0 -74 74 0 26 94)"><stop offset=".77" stop-color="#ff4000"/><stop offset="1" stop-color="#8754c9"/></radialGradient><radialGradient xlink:href="#rainbow_svg__k" id="rainbow_svg__e" cx="0" cy="0" r="1" gradientTransform="matrix(0 -58 58 0 26 94)"><stop offset=".724" stop-color="#fff700"/><stop offset="1" stop-color="#ff9901"/></radialGradient><radialGradient xlink:href="#rainbow_svg__k" id="rainbow_svg__h" cx="0" cy="0" r="1" gradientTransform="matrix(0 -42 42 0 26 94)"><stop offset=".595" stop-color="#0af"/><stop offset="1" stop-color="#01da40"/></radialGradient><radialGradient xlink:href="#rainbow_svg__k" id="rainbow_svg__i" cx="0" cy="0" r="1" gradientTransform="matrix(17 0 0 45.3333 51 97)"><stop stop-color="#0af"/><stop offset="1" stop-color="#01da40"/></radialGradient><radialGradient xlink:href="#rainbow_svg__k" id="rainbow_svg__j" cx="0" cy="0" r="1" gradientTransform="matrix(0 -17 322.37 0 23 69)"><stop stop-color="#0af"/><stop offset="1" stop-color="#01da40"/></radialGradient></defs></svg>