<svg viewBox="0 0 1024 1024" fill="none" xmlns="http://www.w3.org/2000/svg">
  <path
    d="M1021.06 1009.36C1015.82 1017.84 1006.85 1023.23 997.136 1023.23H786.347C775.882 1023.23 766.165 1017.07 761.68 1007.05L642.084 758.947C633.861 742.766 617.417 731.979 599.477 731.979H235.456C227.981 731.979 222.001 738.143 222.001 745.848V995.491C222.001 1011.67 209.294 1024 194.344 1024H27.6567C11.9597 1024 0 1010.9 0 995.491V531.648C0 515.467 12.7071 503.139 27.6567 503.139H588.265C608.447 503.139 625.639 486.188 625.639 464.614V267.365C625.639 246.561 609.195 228.84 588.265 228.84H27.6567C11.9597 228.84 0 215.741 0 200.331V28.5086C0 12.328 12.7071 0 27.6567 0H614.427C630.124 0 642.084 13.0985 642.084 28.5086V164.888C642.084 185.692 658.528 203.413 679.458 203.413H819.984C835.681 203.413 847.64 216.512 847.64 231.922V500.057C847.64 516.238 834.933 528.566 819.984 528.566H679.458C659.276 528.566 642.084 545.517 642.084 567.091V665.716C642.084 692.683 663.013 714.257 689.175 714.257H874.549C885.014 714.257 894.731 720.421 899.216 730.438L1021.06 982.393C1025.54 991.639 1024.79 1001.66 1019.56 1010.13L1021.06 1009.36Z"
    fill="currentColor" />
</svg>
