<svg xmlns="http://www.w3.org/2000/svg" fill="none" viewBox="0 0 1024 1024">
  <path fill="currentColor" d="M1021.06 1009.36c-5.24 8.48-14.21 13.87-23.924 13.87H786.347c-10.465 0-20.182-6.16-24.667-16.18L642.084 758.947c-8.223-16.181-24.667-26.968-42.607-26.968H235.456c-7.475 0-13.455 6.164-13.455 13.869v249.643c0 16.179-12.707 28.509-27.657 28.509H27.657C11.96 1024 0 1010.9 0 995.491V531.648c0-16.181 12.707-28.509 27.657-28.509h560.608c20.182 0 37.374-16.951 37.374-38.525V267.365c0-20.804-16.444-38.525-37.374-38.525H27.657C11.96 228.84 0 215.741 0 200.331V28.509C0 12.328 12.707 0 27.657 0h586.77c15.697 0 27.657 13.099 27.657 28.509v136.379c0 20.804 16.444 38.525 37.374 38.525h140.526c15.697 0 27.656 13.099 27.656 28.509v268.135c0 16.181-12.707 28.509-27.656 28.509H679.458c-20.182 0-37.374 16.951-37.374 38.525v98.625c0 26.967 20.929 48.541 47.091 48.541h185.374c10.465 0 20.182 6.164 24.667 16.181l121.844 251.955c4.48 9.246 3.73 19.267-1.5 27.737z"/>
</svg>
