<svg xmlns="http://www.w3.org/2000/svg" fill="none" viewBox="0 0 1024 1024"><title>rss3-alt-3</title><path fill="#1477FB" d="M234.064 400.109H27.936c-3.815 0-6.936 2.976-6.936 6.868v206.265c0 3.777 3.121 6.867 6.936 6.867h206.128c3.815 0 6.936-3.09 6.936-6.867V406.977c0-3.777-3.121-6.868-6.936-6.868m-22.313 184.059c-.809 1.259-2.196 2.06-3.699 2.06h-32.601c-1.619 0-3.122-.916-3.815-2.404l-18.497-36.857c-1.272-2.404-3.815-4.006-6.59-4.006h-56.3a2.06 2.06 0 0 0-2.081 2.06v37.086c0 2.404-1.966 4.235-4.278 4.235H58.11a4.246 4.246 0 0 1-4.278-4.235V513.2c0-2.404 1.966-4.235 4.278-4.235h86.705c3.121 0 5.78-2.518 5.78-5.723v-29.303c0-3.091-2.543-5.723-5.78-5.723H58.11a4.247 4.247 0 0 1-4.278-4.236v-25.525c0-2.404 1.966-4.235 4.278-4.235h90.751a4.247 4.247 0 0 1 4.278 4.235v20.26c0 3.091 2.543 5.723 5.78 5.723h21.734a4.247 4.247 0 0 1 4.278 4.235v39.834c0 2.404-1.966 4.235-4.278 4.235h-21.734c-3.121 0-5.78 2.518-5.78 5.723v14.652c0 4.006 3.237 7.211 7.283 7.211h28.67c1.619 0 3.122.916 3.816 2.404l18.843 37.429c.694 1.374.578 2.862-.231 4.121z"/><path fill="#1477FB" d="M428.374 524.655c26.621-8.788 43.1-31.283 43.1-59.168 0-36.438-28.234-62.799-67.07-62.799h-91.846c-1.383 0-2.42 1.171-2.42 2.46v92.325c0 1.406 1.152 2.46 2.42 2.46h22.817c3.918 0 7.145 3.281 7.145 7.264v12.888c0 3.984-3.227 7.264-7.145 7.264h-22.817c-1.383 0-2.42 1.172-2.42 2.461v88.927c0 1.406 1.152 2.46 2.42 2.46h27.427c1.383 0 2.42-1.171 2.42-2.46v-83.303c0-3.984 3.227-7.264 7.145-7.264h43.215c.922 0 1.729.468 2.189 1.288l49.323 90.919.461.703h31.922c1.844 0 2.996-1.992 2.189-3.749l-50.36-92.911zm-85.854-32.103v-58.465c0-1.406 1.153-2.46 2.42-2.46h57.736c21.78 0 36.3 13.591 36.3 33.86s-14.635 34.212-36.3 34.212H349.55c-3.918 0-7.145-3.281-7.145-7.264z"/><path fill="#1477FB" d="m593.513 499.113-45.75-6.092c-11.524-1.64-24.662-8.67-28.695-23.316-5.531-20.386 11.178-40.069 31.922-40.069h24.431c22.471 0 33.765 21.323 34.687 41.007v1.406h33.074v-1.523c-2.074-47.452-29.963-72.525-80.668-72.525-48.056 0-76.635 24.253-76.635 64.792 0 33.743 20.167 56.473 53.932 61.042l46.442 6.444c17.171 1.992 28.234 14.294 28.234 31.517 0 19.215-13.598 32.571-33.074 32.571h-31.115c-24.085 0-35.033-21.792-36.992-40.538v-1.289h-33.074v1.523c1.037 47.686 29.617 71.821 85.047 71.821 51.859 0 81.591-24.253 81.591-66.549 0-34.094-18.9-55.535-53.241-60.456z"/><path fill="#1477FB" d="m774.095 499.113-45.75-6.092c-11.524-1.64-24.662-8.67-28.695-23.316-5.532-20.386 11.178-40.069 31.922-40.069h24.43c22.472 0 33.766 21.323 34.688 41.007v1.406h33.074v-1.523c-2.075-47.452-29.963-72.525-80.668-72.525-48.056 0-76.635 24.253-76.635 64.792 0 33.743 20.167 56.473 53.932 61.042l46.442 6.444c17.171 1.992 28.234 14.294 28.234 31.517 0 19.215-13.598 32.571-33.074 32.571H730.88c-24.085 0-35.033-21.792-36.992-40.538v-1.289h-33.074v1.523c1.037 47.686 29.617 71.821 85.047 71.821 51.858 0 81.59-24.253 81.59-66.549 0-34.094-18.899-55.535-53.241-60.456z"/><path fill="#1477FB" d="M972.885 504.854c-1.499-.703-1.614-2.695-.116-3.515 16.364-9.256 25.008-24.956 25.008-45.694 0-17.34-7.145-57.761-73.409-57.761-50.36 0-79.861 24.135-82.973 68.072v5.975h32.613v-5.741c1.038-21.324 17.286-37.375 37.799-37.375h22.242c18.784 0 31.345 12.654 31.345 31.517s-11.639 31.283-30.424 31.283h-36.876c-1.038 0-1.959.937-1.959 1.991v24.487c0 1.055.921 1.992 1.959 1.992h38.605c21.55 0 35.033 14.529 35.033 37.961 0 23.433-13.829 36.907-35.955 36.907h-23.509c-21.78 0-38.029-18.043-39.642-43.819v-3.632h-32.844v3.866c2.881 50.146 30.539 74.516 84.702 74.516 50.59 0 79.626-24.604 79.626-67.486 0-25.893-10.713-44.288-31.225-53.661z"/></svg>