<svg xmlns="http://www.w3.org/2000/svg" fill="none" viewBox="0 0 100 100"><path fill="#000" d="M0 0h100v100H0z"/><path fill="#fff" d="M30 64h2v2h-2z"/><path fill="#fff" d="M32 70h36v2H32z"/><path fill="#fff" d="M70 64h-2v2h2z"/><path fill="#fff" d="M30 46h40v16H30z"/><path fill="#fff" d="M28 48h44v14H28z"/><path fill="#fff" d="M30 48h40v-2H30z"/><path fill="#fff" d="M28 48h44v-2H28z"/><path fill="#fff" d="M28 46h44v-2H28z"/><path fill="#fff" d="M30 62h40v4H30z"/><path fill="#fff" d="M28 62h44v6H28z"/><path fill="#fff" d="M32 66h36v2H32z"/><path fill="#fff" d="M30 68h40v2H30z"/><path fill="#000" d="M36 56v-2h2v2z"/><path fill="#000" d="M36 48v-2h2v2z"/><path fill="#000" d="M38 48v-2h2v2z"/><path fill="#000" d="M40 48v-2h4v2z"/><path fill="#000" d="M42 52v2h-4v-2z"/><path fill="#000" d="M42 50v2h-4v-2z"/><path fill="#000" d="M42 48v2h-4v-2z"/><path fill="#000" d="M34 56v-8h2v8z"/><path fill="#000" d="M38 56v-2h2v2z"/><path fill="#000" d="M40 56v-2h4v2z"/><path fill="#000" d="M44 56v-4h2v4z"/><path fill="#000" d="M44 52v-4h2v4z"/><path fill="#000" d="M54 51v2h2v-2z"/><path fill="#000" d="M56 51v2h2v-2z"/><path fill="#000" d="M58 51v2h4v-2z"/><path fill="#000" d="M52 54v2h-.5v-2z"/><path fill="#000" d="M51.5 54v2H51v-2z"/><path fill="#000" d="M51 54v2h-1v-2z"/><path fill="#000" d="M50 56v2h-.5v-2z"/><path fill="#000" d="M49.5 56v2H49v-2z"/><path fill="#000" d="M49 56v2h-1v-2z"/><path fill="#fff" d="M40 50v2h-.5v-2z"/><path fill="#fff" d="M39.5 50v2H39v-2z"/><path fill="#fff" d="M39 50v2h-1v-2z"/><path fill="#fff" d="M38 48v6h-.5v-6z"/><path fill="#fff" d="M37.5 48v6H37v-6z"/><path fill="#fff" d="M37 48v6h-1v-6z"/><path fill="#fff" d="M44 48v6h-.5v-6z"/><path fill="#fff" d="M43.5 48v6H43v-6z"/><path fill="#fff" d="M43 48v6h-1v-6z"/><path fill="#000" d="M62 53v2h.5v-2z"/><path fill="#000" d="M62.5 53v2h.5v-2z"/><path fill="#000" d="M63 53v2h1v-2z"/><path fill="#000" d="M64 55v2h.5v-2z"/><path fill="#000" d="M64.5 55v2h.5v-2z"/><path fill="#000" d="M65 55v2h1v-2z"/><path fill="#000" d="M50 56v2h.5v-2z"/><path fill="#000" d="M50.5 56v2h.5v-2z"/><path fill="#000" d="M51 56v2h1v-2z"/><path fill="#000" d="M64 47v2h.5v-2z"/><path fill="#000" d="M64.5 47v2h.5v-2z"/><path fill="#000" d="M65 47v2h1v-2z"/><path fill="#000" d="M62 49v2h.5v-2z"/><path fill="#000" d="M62.5 49v2h.5v-2z"/><path fill="#000" d="M63 49v2h1v-2z"/><path fill="#000" d="M43 62h2v2h-2z"/><path fill="#000" d="M55 62h2v2h-2z"/><path fill="#000" d="M45 64h2v2h-2z"/><path fill="#000" d="M53 64h2v2h-2z"/><path fill="#000" d="M57 60h2v2h-2z"/><path fill="#000" d="M57 62h2v2h-2z"/><path fill="#000" d="M57 64h2v2h-2z"/><path fill="#000" d="M59 66h2v2h-2z"/><path fill="#000" d="M61 66h2v2h-2z"/><path fill="#000" d="M59 58h2v2h-2z"/><path fill="#000" d="M43 60h-2v2h2z"/><path fill="#000" d="M43 62h-2v2h2z"/><path fill="#000" d="M43 64h-2v2h2z"/><path fill="#000" d="M41 66h-2v2h2z"/><path fill="#000" d="M39 66h-2v2h2z"/><path fill="#000" d="M41 58h-2v2h2z"/><path fill="#000" d="M47 64h6v2h-6z"/><path fill="#000" d="M47 66h6v2h-6z"/><path fill="#fff" d="M26 38h48v20H26z"/><path fill="#000" d="M26 56h48v2H26z"/><path fill="#fff" d="M34 32h32v2H34z"/><path fill="#fff" d="M38 30h24v2H38z"/><path fill="#fff" d="M40 28h20v2H40z"/><path fill="#fff" d="M32 34h36v2H32z"/><path fill="#fff" d="M28 36h44v2H28z"/><path fill="#000" d="M30 46h40v8H30z"/><path fill="#fff" d="M32 48h36v2H32z"/><path fill="#000" d="M46 30h2v2h-2z"/><path fill="#000" d="M50 30h2v2h-2z"/><path fill="#000" d="M46 34h2v2h-2z"/><path fill="#000" d="M46 38h2v2h-2z"/><path fill="#000" d="M46 42h2v2h-2z"/><path fill="#000" d="M28 42h2v2h-2z"/><path fill="#000" d="M50 34h2v2h-2z"/><path fill="#000" d="M50 38h2v2h-2z"/><path fill="#000" d="M50 42h2v2h-2z"/><path fill="#000" d="M70 42h2v2h-2z"/></svg>