<svg xmlns="http://www.w3.org/2000/svg" fill="none" viewBox="0 0 114 121">
  <g fill="#1477FB" clip-path="url(#rss3-node_svg__a)">
    <path d="M108.71.315H4.685C2.125.315.046 2.523.046 5.245V115.77c0 2.722 2.078 4.929 4.64 4.929H108.71c2.561 0 4.639-2.207 4.639-4.929V5.244c0-2.72-2.078-4.929-4.639-4.929m-19.657 87.27c0 4.035-3.073 7.3-6.871 7.3h-50.96c-3.797 0-6.87-3.265-6.87-7.3V33.44c0-4.036 3.073-7.301 6.87-7.301h50.96c3.798 0 6.871 3.265 6.871 7.3z"/>
    <path d="M66.515 47.272H46.887c-1.462 0-2.648 1.26-2.648 2.813V70.94c0 1.554 1.186 2.814 2.648 2.814h19.628c1.463 0 2.648-1.26 2.648-2.814V50.085c0-1.553-1.185-2.813-2.648-2.813"/>
  </g>
  <defs>
    <clipPath id="rss3-node_svg__a">
      <path fill="#fff" d="M.047.315h113.302V120.7H.047z"/>
    </clipPath>
  </defs>
</svg>
