<svg xmlns="http://www.w3.org/2000/svg" fill="none" viewBox="0 0 99 100"><g clip-path="url(#rss3-dsl_svg__a)"><path fill="#1477FB" d="M93.06 0H5.154A5.15 5.15 0 0 0 0 5.146v89.12a5.15 5.15 0 0 0 5.154 5.146H93.06a5.15 5.15 0 0 0 5.154-5.146V5.146A5.15 5.15 0 0 0 93.06 0"/><path fill="#fff" d="M80.554 32.401H74.81c-4.248 0-7.698-3.446-7.698-7.71v-6.014c0-.938-.758-1.697-1.695-1.697H17.9a1.927 1.927 0 0 0-1.925 1.927v12.935c0 1.049.848 1.908 1.905 1.908h40.835c4.249 0 7.699 3.446 7.699 7.71v16.521c0 4.255-3.44 7.701-7.689 7.701H17.89a1.906 1.906 0 0 0-1.905 1.908v12.934c0 1.07.868 1.928 1.925 1.928h47.517c.937 0 1.695-.759 1.695-1.698v-6.013c0-4.255 3.44-7.71 7.698-7.71h5.744c.938 0 1.696-.76 1.696-1.699V34.07c0-.939-.758-1.698-1.696-1.698z"/></g><defs><clipPath id="rss3-dsl_svg__a"><path fill="#fff" d="M0 0h98.214v99.412H0z"/></clipPath></defs></svg>