<svg xmlns="http://www.w3.org/2000/svg" fill="none" viewBox="0 0 505 505"><title>rss3-wrss3</title><path fill="#35C4E7" d="M0 0h505v505H0z"/><path fill="#fff" d="M414.169 391.897c-1.477 2.375-4.008 3.887-6.751 3.887h-59.49c-2.953 0-5.696-1.728-6.962-4.535l-33.753-69.536c-2.32-4.535-6.962-7.559-12.025-7.559H192.452c-2.11 0-3.797 1.728-3.797 3.887v69.969c0 4.535-3.587 7.99-7.806 7.99h-47.044c-4.43 0-7.805-3.671-7.805-7.99V258.007c0-4.535 3.586-7.99 7.805-7.99h158.219c5.696 0 10.548-4.751 10.548-10.798v-55.284c0-5.83-4.641-10.797-10.548-10.797H133.805c-4.43 0-7.805-3.671-7.805-7.991V116.99c0-4.535 3.586-7.99 7.805-7.99h165.603c4.43 0 7.805 3.671 7.805 7.99v38.224c0 5.83 4.641 10.797 10.548 10.797h39.66c4.43 0 7.806 3.671 7.806 7.991v75.151c0 4.535-3.587 7.99-7.806 7.99h-39.66c-5.696 0-10.548 4.751-10.548 10.798v27.641c0 7.559 5.907 13.605 13.29 13.605h52.318c2.953 0 5.696 1.728 6.962 4.535l34.386 70.617c1.266 2.591 1.055 5.398-.422 7.774z"/></svg>