<svg xmlns="http://www.w3.org/2000/svg" fill="none" viewBox="0 0 1024 1024"><title>rss3-mono</title><path fill="currentColor" d="M991.714 0H32.286C14.529 0 0 13.852 0 31.967v960.066C0 1009.61 14.529 1024 32.286 1024h959.428c17.756 0 32.286-14.39 32.286-31.967V31.967C1024 14.385 1009.47 0 991.714 0M887.861 856.708c-3.766 5.86-10.224 9.59-17.219 9.59H718.899c-7.534 0-14.529-4.263-17.758-11.189l-86.095-171.554c-5.919-11.189-17.758-18.648-30.672-18.648H322.321c-5.381 0-9.686 4.263-9.686 9.59v172.621c0 11.188-9.148 19.712-19.91 19.712H172.729c-11.3 0-19.909-9.057-19.909-19.712V526.385c0-11.188 9.147-19.713 19.909-19.713h403.574c14.528 0 26.905-11.721 26.905-26.639V343.642c0-14.385-11.839-26.639-26.905-26.639H172.729c-11.3 0-19.909-9.057-19.909-19.713V178.481c0-11.189 9.147-19.713 19.909-19.713h422.407c11.3 0 19.91 9.057 19.91 19.713v94.302c0 14.385 11.838 26.638 26.905 26.638h101.162c11.3 0 19.91 9.058 19.91 19.713v185.407c0 11.188-9.148 19.713-19.91 19.713H641.951c-14.529 0-26.905 11.721-26.905 26.639v68.195c0 18.648 15.066 33.566 33.9 33.566h133.448c7.533 0 14.529 4.262 17.757 11.188l87.71 174.218c3.229 6.394 2.691 13.32-1.076 19.18z"/></svg>