<svg xmlns="http://www.w3.org/2000/svg" fill="none" viewBox="0 0 100 101">
  <g clip-path="url(#rss3-vsl_svg__a)">
    <path fill="#1477F9" d="M94.547 0H5.237A5.23 5.23 0 0 0 0 5.228v90.544A5.23 5.23 0 0 0 5.236 101h89.31a5.23 5.23 0 0 0 5.237-5.228V5.228A5.23 5.23 0 0 0 94.547 0"/>
    <path fill="#fff" d="M67.493 82.45v-5.836c0-4.316 3.5-7.822 7.834-7.822h6.109c.954 0 1.725-.77 1.725-1.722V18.794a1.96 1.96 0 0 0-1.959-1.956H68.061a1.937 1.937 0 0 0-1.938 1.935v41.489c0 4.316-3.501 7.821-7.834 7.821H41.504c-4.323 0-7.824-3.495-7.824-7.811V18.784a1.936 1.936 0 0 0-1.938-1.935H18.601a1.96 1.96 0 0 0-1.959 1.955V67.08c0 .952.771 1.722 1.725 1.722h6.11c4.322 0 7.833 3.496 7.833 7.822v5.836c0 .952.772 1.722 1.725 1.722h31.763c.954 0 1.725-.77 1.725-1.722z"/>
  </g>
  <defs>
    <clipPath id="rss3-vsl_svg__a">
      <path fill="#fff" d="M0 0h99.783v101H0z"/>
    </clipPath>
  </defs>
</svg>
