<svg xmlns="http://www.w3.org/2000/svg" fill="none" viewBox="0 0 135 121">
  <path fill="#1477FB" d="M105.704.315H81.6c-1.407 0-2.551 1.104-2.551 2.462v18.778c0 1.357 1.144 2.461 2.551 2.461h21.101c3.745 0 6.774 2.928 6.774 6.534v60.008c0 3.612-3.035 6.534-6.774 6.534H80.607c-.613 0-1.112-.481-1.112-1.072V64.49c0-1.358-1.145-2.462-2.552-2.462H57.98c-1.408 0-2.552 1.104-2.552 2.462v31.53c0 .59-.5 1.072-1.112 1.072H32.221c-3.744 0-6.774-2.927-6.774-6.534V30.55c0-3.611 3.035-6.534 6.774-6.534h21.101c1.408 0 2.552-1.104 2.552-2.461V2.777c0-1.358-1.144-2.462-2.552-2.462H29.218a6.87 6.87 0 0 0-4.765 1.902L2.847 23.052a6.38 6.38 0 0 0-1.971 4.596V93.45c0 1.725.709 3.378 1.971 4.596l21.6 20.835a6.86 6.86 0 0 0 4.766 1.902h24.104c1.407 0 2.552-1.104 2.552-2.462V98.564c0-.59.5-1.073 1.112-1.073h20.961c.612 0 1.112.482 1.112 1.073v19.757c0 1.358 1.144 2.462 2.552 2.462h24.104a6.87 6.87 0 0 0 4.765-1.902l21.6-20.835a6.38 6.38 0 0 0 1.972-4.596V27.648a6.38 6.38 0 0 0-1.972-4.596L110.469 2.217a6.86 6.86 0 0 0-4.765-1.902"/>
  <path fill="#1477FB" d="M77.305 32.002H57.472c-1.177 0-2.13.913-2.13 2.038v17.39c0 1.125.953 2.038 2.13 2.038h19.833c1.176 0 2.13-.913 2.13-2.038V34.04c0-1.125-.954-2.038-2.13-2.038"/>
</svg>
