<svg xmlns="http://www.w3.org/2000/svg" fill="currentColor" viewBox="0 0 516 321">
  <path d="M1.405 27.001C-3.736 14.022 5.845 0 19.867 0h87.052c8.179 0 15.423 4.867 18.462 12.4l69.29 172.899c1.87 4.636 1.87 9.85 0 14.602l-43.584 108.583c-6.66 16.572-30.264 16.572-36.924 0zm168.142-.579C164.873 13.559 174.454 0 188.242 0h75.835c8.413 0 15.891 5.215 18.695 12.979l62.981 172.9c1.519 4.287 1.519 9.039 0 13.442L307.894 303.27c-6.309 17.382-31.081 17.382-37.391 0zm151.784.579C316.19 14.022 325.771 0 339.793 0h87.052c8.179 0 15.424 4.867 18.462 12.4l69.29 172.899c1.87 4.636 1.87 9.85 0 14.602l-43.584 108.583c-6.66 16.572-30.263 16.572-36.924 0z"/>
</svg>
