<svg xmlns="http://www.w3.org/2000/svg" fill="currentColor" viewBox="0 0.12 38.97 36">
  <path d="M20.439.61Q19.174.12 17.786.12c-1.388 0-1.816.163-2.673.49a6.8 6.8 0 0 0-2.265 1.388 6.5 6.5 0 0 0-.992 1.156V.426H0v3.367h4.02v10.244h3.816V3.793h3.638l-.218.449q-.571 1.326-.571 3.02c0 1.694.191 2.136.571 3.02a6.7 6.7 0 0 0 1.592 2.245 7.1 7.1 0 0 0 2.265 1.408 7.7 7.7 0 0 0 2.673.469q1.387 0 2.653-.469a7 7 0 0 0 2.285-1.408 6.5 6.5 0 0 0 1.571-2.245q.591-1.326.592-3.02c.001-1.694-.197-2.136-.592-3.02q-.572-1.326-1.571-2.245C21.725 1.078 21.296.923 20.439.61m-4.286 3.55q.714-.47 1.632-.469c.918.001 1.156.156 1.633.469a3.17 3.17 0 0 1 1.143 1.286q.408.796.408 1.816c0 1.02-.136 1.292-.408 1.837a3.2 3.2 0 0 1-1.143 1.265 2.9 2.9 0 0 1-1.633.469 2.9 2.9 0 0 1-1.632-.469 3.44 3.44 0 0 1-1.143-1.265q-.408-.816-.408-1.837c0-1.021.136-1.286.408-1.816a3.4 3.4 0 0 1 1.143-1.286m8.203 18.849v-8.305H20.54v8.04q0 1.061-.571 1.734-.572.653-1.796.673c-1.224.02-1.415-.204-1.796-.653q-.571-.694-.571-1.755v-8.04H11.99v8.305q0 1.775.837 3.061a5.55 5.55 0 0 0 2.245 1.979q1.409.673 3.102.673 1.715 0 3.102-.673 1.408-.693 2.245-1.979c.837-1.286.837-1.877.837-3.061zm-14.357.795v-3.367H5.142v-2.326h5.877v-3.367H1.326v13.672h3.816v-4.612zm23.282-.409h-3.367v-4.857h-4.612v-3.816h13.672V36.12h-3.367V32.1H25.363v-3.816h10.244v-9.746h-2.326zM25.3 12.913h13.674V9.464h-7.04l7.04-7.693V.425H25.3v3.53h6.511L25.3 11.566z"/>
</svg>
