<svg xmlns="http://www.w3.org/2000/svg" fill="none" viewBox="0 0 63 50">
  <mask id="x-layer_svg__a" width="7" height="18" x="51" y="32" maskUnits="userSpaceOnUse" style="mask-type:alpha">
    <path fill="#000" d="M57.31 32.938h-5.544V49.26h5.544z"/>
  </mask>
  <g mask="url(#x-layer_svg__a)">
    <path fill="#000" fill-opacity=".5" d="M56.218 32.938H42.072c-.6 0-1.088.487-1.088 1.088V48.17c0 .601.487 1.088 1.088 1.088h14.146c.601 0 1.088-.487 1.088-1.088V34.026c0-.601-.487-1.089-1.088-1.089"/>
  </g>
  <mask id="x-layer_svg__c" width="7" height="17" x="51" y="0" maskUnits="userSpaceOnUse" style="mask-type:alpha">
    <path fill="url(#x-layer_svg__b)" d="M0 0h5.544v16.322H0z" transform="matrix(-1 0 0 1 57.31 .258)"/>
  </mask>
  <g mask="url(#x-layer_svg__c)">
    <path fill="#000" fill-opacity=".5" d="M56.218.258H42.072c-.6 0-1.088.487-1.088 1.088V15.49c0 .601.487 1.088 1.088 1.088h14.146c.601 0 1.088-.487 1.088-1.088V1.346c0-.601-.487-1.088-1.088-1.088"/>
  </g>
  <mask id="x-layer_svg__d" width="3" height="17" x="60" y="0" maskUnits="userSpaceOnUse" style="mask-type:alpha">
    <path fill="#000" d="M62.867.258H60.11V16.58h2.758z"/>
  </mask>
  <g mask="url(#x-layer_svg__d)">
    <path fill="#000" fill-opacity=".3" d="M61.775.258H47.629c-.6 0-1.088.487-1.088 1.088V15.49c0 .601.487 1.088 1.088 1.088h14.146c.6 0 1.088-.487 1.088-1.088V1.346c0-.601-.487-1.088-1.088-1.088"/>
  </g>
  <mask id="x-layer_svg__e" width="3" height="18" x="60" y="32" maskUnits="userSpaceOnUse" style="mask-type:alpha">
    <path fill="#000" d="M62.877 32.938h-2.758V49.26h2.758z"/>
  </mask>
  <g mask="url(#x-layer_svg__e)">
    <path fill="#000" fill-opacity=".3" d="M61.785 32.938H47.639c-.601 0-1.088.487-1.088 1.088V48.17c0 .601.487 1.088 1.088 1.088h14.145c.602 0 1.089-.487 1.089-1.088V34.026c0-.601-.487-1.089-1.088-1.089"/>
  </g>
  <path fill="#000" d="M31.529 16.617H17.45a1.08 1.08 0 0 0-1.083 1.075V31.67a1.08 1.08 0 0 0 1.083 1.075h14.08a1.08 1.08 0 0 0 1.083-1.075V17.692a1.08 1.08 0 0 0-1.083-1.075"/>
  <path fill="#000" d="M15.234.258H1.088C.488.258 0 .745 0 1.346V15.49c0 .601.487 1.088 1.088 1.088h14.146c.6 0 1.088-.487 1.088-1.088V1.346c0-.601-.487-1.088-1.088-1.088"/>
  <path fill="#000" d="M47.87.258H33.725c-.601 0-1.088.487-1.088 1.088V15.49c0 .601.487 1.088 1.088 1.088H47.87c.601 0 1.089-.487 1.089-1.088V1.346c0-.601-.488-1.088-1.089-1.088"/>
  <path fill="#000" d="M15.234 32.9H1.088c-.6 0-1.088.488-1.088 1.09v14.145c0 .6.487 1.088 1.088 1.088h14.146c.6 0 1.088-.487 1.088-1.088V33.989c0-.601-.487-1.089-1.088-1.089"/>
  <path fill="#000" d="M47.87 32.9H33.725c-.601 0-1.088.488-1.088 1.089v14.145c0 .6.487 1.088 1.088 1.088H47.87c.601 0 1.089-.487 1.089-1.088V33.989A1.09 1.09 0 0 0 47.87 32.9"/>
  <defs>
    <linearGradient id="x-layer_svg__b" x1="6.018" x2=".056" y1="9.103" y2="7.896" gradientUnits="userSpaceOnUse">
      <stop/>
      <stop offset="1" stop-color="#fff"/>
    </linearGradient>
  </defs>
</svg>
